<svg height="512" viewBox="0 0 256 256" width="512" xmlns="http://www.w3.org/2000/svg"><g><circle cx="128" cy="50.016" fill="#f8af23" r="31.456"/><g><path d="m111.21 50.016c0-14.847 10.289-27.283 24.123-30.588-2.354-.562-4.807-.868-7.333-.868-17.373 0-31.456 14.083-31.456 31.456s14.083 31.456 31.456 31.456c2.526 0 4.98-.306 7.333-.868-13.834-3.305-24.123-15.741-24.123-30.588z" fill="#f87023"/></g><g><path d="m144.79 50.016c0-14.847-10.289-27.283-24.123-30.588 2.354-.562 4.807-.868 7.333-.868 17.373 0 31.456 14.083 31.456 31.456s-14.083 31.456-31.456 31.456c-2.526 0-4.98-.306-7.333-.868 13.834-3.305 24.123-15.741 24.123-30.588z" fill="#f8d323"/></g><g><path d="m213.999 226.467c-8.317 0-15.06-6.743-15.06-15.06v-18.857h30.12v18.857c0 8.318-6.743 15.06-15.06 15.06z" fill="#9e9e9e"/><path d="m60.629 131.984h-18.837c-1.543 0-2.901-1.017-3.334-2.498l-2.126-7.266c-.651-2.224 1.017-4.449 3.334-4.449h20.962c1.918 0 3.474 1.555 3.474 3.474v7.266c0 1.918-1.555 3.473-3.473 3.473z" fill="#9e9e9e"/><path d="m195.371 131.984h18.836c1.543 0 2.901-1.017 3.334-2.498l2.126-7.266c.651-2.224-1.017-4.449-3.334-4.449h-20.962c-1.918 0-3.474 1.555-3.474 3.474v7.266c.001 1.918 1.556 3.473 3.474 3.473z" fill="#cecece"/><path d="m42.001 226.467c-8.317 0-15.06-6.743-15.06-15.06v-18.857h30.12v18.857c0 8.318-6.743 15.06-15.06 15.06z" fill="#9e9e9e"/><g><path d="m41.608 211.407v-18.857h-14.667v18.857c0 8.317 6.743 15.06 15.06 15.06 2.664 0 5.162-.698 7.333-1.912-4.607-2.575-7.726-7.494-7.726-13.148z" fill="#707070"/></g><g><path d="m214.392 211.407v-18.857h14.667v18.857c0 8.317-6.743 15.06-15.06 15.06-2.664 0-5.162-.698-7.333-1.912 4.607-2.575 7.726-7.494 7.726-13.148z" fill="#cecece"/></g><path d="m221.097 148.448-20.778-16.464-8.316-17.205c-3.507-7.256-10.857-11.867-18.916-11.867h-90.175c-8.06 0-15.409 4.611-18.916 11.867l-8.316 17.205-20.778 16.464c-5.029 3.985-7.961 10.05-7.961 16.466v31.613c0 3.828 3.103 6.931 6.931 6.931h188.255c3.828 0 6.931-3.103 6.931-6.931v-31.613c.001-6.416-2.931-12.481-7.961-16.466z" fill="#63bce7"/><path d="m221.097 148.448-20.778-16.464h-144.638l-20.778 16.464c-5.029 3.985-7.961 10.05-7.961 16.466v31.613c0 3.828 3.103 6.931 6.931 6.931h188.255c3.828 0 6.931-3.103 6.931-6.931v-31.613c0-6.416-2.932-12.481-7.962-16.466z" fill="#63bce7"/><g><path d="m41.608 196.528v-31.613c0-6.417 2.932-12.481 7.961-16.466l20.778-16.464h-14.666l-20.778 16.464c-5.029 3.985-7.961 10.05-7.961 16.466v31.613c0 3.828 3.103 6.931 6.931 6.931h14.667c-3.829 0-6.932-3.103-6.932-6.931z" fill="#6377e7"/></g><g><path d="m214.392 196.528v-31.613c0-6.417-2.932-12.481-7.961-16.466l-20.778-16.464h14.667l20.778 16.464c5.029 3.985 7.961 10.05 7.961 16.466v31.613c0 3.828-3.103 6.931-6.931 6.931h-14.667c3.828 0 6.931-3.103 6.931-6.931z" fill="#63e2e7"/></g><path d="m200.319 131.984-8.316-17.205c-3.507-7.256-10.856-11.867-18.916-11.867h-90.175c-8.06 0-15.409 4.611-18.916 11.867l-8.316 17.205z" fill="#f8af23"/><path d="m97.579 102.912h-14.667c-8.06 0-15.409 4.611-18.916 11.867l-8.316 17.205h14.667l8.316-17.205c3.507-7.256 10.856-11.867 18.916-11.867z" fill="#f87023"/><path d="m158.421 102.912h14.667c8.06 0 15.409 4.611 18.916 11.867l8.316 17.205h-14.667l-8.316-17.205c-3.507-7.256-10.856-11.867-18.916-11.867z" fill="#f8d323"/><path d="m160.16 188.432h-64.32c-1.935 0-3.783.809-5.095 2.232l-11.804 12.796h98.117l-11.804-12.796c-1.312-1.423-3.159-2.232-5.094-2.232z" fill="#f46275"/><g fill="#f8af23"><path d="m47.513 170.901h-5.462c-1.898 0-3.436-1.538-3.436-3.436v-9.999c0-1.898 1.538-3.436 3.436-3.436h5.462c1.898 0 3.436 1.538 3.436 3.436v9.999c0 1.898-1.538 3.436-3.436 3.436z"/><path d="m213.949 170.901h-5.462c-1.898 0-3.436-1.538-3.436-3.436v-9.999c0-1.898 1.538-3.436 3.436-3.436h5.462c1.898 0 3.436 1.538 3.436 3.436v9.999c0 1.898-1.538 3.436-3.436 3.436z"/></g></g><g fill="#3f3679"><path d="m129.5 69.33v-1.471h1.472c4.923 0 8.928-4.005 8.928-8.928v-2.972c0-4.923-4.005-8.928-8.928-8.928h-1.472v-11.857h1.472c3.269 0 5.928 2.659 5.928 5.928 0 .829.672 1.5 1.5 1.5s1.5-.671 1.5-1.5c0-4.923-4.005-8.928-8.928-8.928h-1.472v-1.472c0-.829-.671-1.5-1.5-1.5s-1.5.671-1.5 1.5v1.472h-1.471c-4.923 0-8.929 4.005-8.929 8.928s4.005 8.928 8.929 8.928h1.471v14.828h-1.471c-3.269 0-5.929-2.659-5.929-5.928 0-.829-.671-1.5-1.5-1.5s-1.5.671-1.5 1.5c0 4.923 4.005 8.928 8.929 8.928h1.471v1.471c0 .829.671 1.5 1.5 1.5s1.5-.671 1.5-1.499zm-4.471-22.3c-3.269 0-5.929-2.659-5.929-5.928s2.66-5.928 5.929-5.928h1.471v11.856zm4.471 3h1.472c3.269 0 5.928 2.659 5.928 5.928v2.972c0 3.269-2.659 5.928-5.928 5.928h-1.472z"/><path d="m27.323 235.94h-18.003c-.829 0-1.5.671-1.5 1.5s.671 1.5 1.5 1.5h18.003c.829 0 1.5-.671 1.5-1.5s-.671-1.5-1.5-1.5z"/><path d="m246.68 235.94h-18.003c-.828 0-1.5.671-1.5 1.5s.672 1.5 1.5 1.5h18.003c.828 0 1.5-.671 1.5-1.5s-.672-1.5-1.5-1.5z"/><path d="m218.479 235.94h-180.958c-.829 0-1.5.671-1.5 1.5s.671 1.5 1.5 1.5h180.959c.828 0 1.5-.671 1.5-1.5s-.672-1.5-1.501-1.5z"/><path d="m9.32 227.967h237.36c.828 0 1.5-.671 1.5-1.5s-.672-1.5-1.5-1.5h-23.204c4.276-2.997 7.083-7.953 7.083-13.56v-14.879-3.978-27.635c0-6.917-3.108-13.348-8.529-17.643l-17.401-13.789h9.58c2.194 0 4.157-1.471 4.773-3.577l2.126-7.266c.444-1.518.155-3.114-.793-4.379s-2.399-1.991-3.98-1.991h-20.963c-.314 0-.625.04-.932.099l-1.084-2.243c-3.733-7.724-11.688-12.714-20.267-12.714h-43.589v-18.478c17.478-.787 31.456-15.249 31.456-32.918 0-18.172-14.784-32.957-32.956-32.957s-32.956 14.785-32.956 32.957c0 17.669 13.978 32.131 31.456 32.918v18.478h-43.588c-8.578 0-16.533 4.991-20.267 12.714l-1.083 2.241c-.307-.059-.618-.096-.934-.096h-20.962c-1.581 0-3.032.726-3.98 1.991s-1.237 2.862-.793 4.379l2.126 7.266c.616 2.106 2.579 3.577 4.773 3.577h9.58l-17.401 13.789c-5.421 4.296-8.53 10.727-8.53 17.643v27.635 3.978 14.879c0 5.607 2.807 10.563 7.083 13.56h-23.204c-.829 0-1.5.671-1.5 1.5s.671 1.499 1.5 1.499zm88.724-177.951c0-16.518 13.438-29.957 29.956-29.957s29.956 13.438 29.956 29.957-13.438 29.956-29.956 29.956-29.956-13.438-29.956-29.956zm-46.566 174.951c4.276-2.997 7.083-7.953 7.083-13.56v-6.448h20.38 98.117 20.381v6.448c0 5.607 2.807 10.563 7.083 13.56zm30.888-23.008 9.482-10.279c1.025-1.111 2.48-1.749 3.992-1.749h64.319c1.513 0 2.968.637 3.992 1.749l9.482 10.279zm131.633 23.008c-7.477 0-13.56-6.083-13.56-13.56v-6.448h21.688c2.069 0 3.963-.752 5.432-1.993v8.44c0 7.478-6.083 13.561-13.56 13.561zm-14.202-91.483 11.454 9.076-9.936 5.717c-4.352 2.504-8.035 5.846-10.948 9.931-2.549 3.575-6.691 5.709-11.083 5.709h-102.567c-4.391 0-8.535-2.134-11.083-5.709-2.913-4.086-6.597-7.427-10.948-9.931l-9.936-5.717 11.454-9.076h4.425zm16.537-14.213c.628 0 1.203.288 1.579.79.377.502.491 1.136.315 1.738l-2.126 7.266c-.245.835-1.023 1.419-1.895 1.419h-12.947l-5.419-11.213zm-133.422-14.859h90.176c7.435 0 14.329 4.326 17.565 11.02l7.275 15.052h-137.3-2.557l7.275-15.052c3.237-6.694 10.131-11.02 17.566-11.02zm-43.014 24.652-2.126-7.266c-.176-.602-.062-1.235.315-1.738.376-.502.952-.79 1.579-.79h20.493l-5.419 11.213h-12.948c-.871.001-1.649-.583-1.894-1.419zm-11.457 35.851c0-5.994 2.695-11.568 7.393-15.291l6.388-5.062c.014.008.025.02.039.028l10.928 6.287c3.975 2.287 7.34 5.339 10.001 9.072 3.11 4.363 8.167 6.968 13.526 6.968h102.566c5.359 0 10.415-2.604 13.526-6.967 2.661-3.732 6.025-6.785 10.001-9.072l10.928-6.287c.014-.008.025-.02.039-.028l6.389 5.062c4.698 3.722 7.393 9.296 7.393 15.291v27.635 3.978c0 2.995-2.437 5.432-5.432 5.432h-44.411l-11.359-12.313c-1.591-1.726-3.85-2.715-6.197-2.715h-64.319c-2.347 0-4.605.989-6.197 2.714l-11.359 12.313h-44.411c-2.995 0-5.432-2.437-5.432-5.432v-3.978zm0 46.492v-8.44c1.469 1.241 3.363 1.993 5.432 1.993h21.688v6.448c0 7.477-6.083 13.56-13.56 13.56s-13.56-6.084-13.56-13.561z"/><path d="m42.051 172.401h5.462c2.722 0 4.936-2.214 4.936-4.936v-9.999c0-2.722-2.214-4.936-4.936-4.936h-5.462c-2.722 0-4.936 2.214-4.936 4.936v9.999c0 2.722 2.214 4.936 4.936 4.936zm-1.936-14.935c0-1.067.869-1.936 1.936-1.936h5.462c1.067 0 1.936.869 1.936 1.936v9.999c0 1.067-.869 1.936-1.936 1.936h-5.462c-1.067 0-1.936-.869-1.936-1.936z"/><path d="m208.487 172.401h5.462c2.722 0 4.936-2.214 4.936-4.936v-9.999c0-2.722-2.214-4.936-4.936-4.936h-5.462c-2.722 0-4.937 2.214-4.937 4.936v9.999c.001 2.722 2.216 4.936 4.937 4.936zm-1.936-14.935c0-1.067.869-1.936 1.937-1.936h5.462c1.067 0 1.936.869 1.936 1.936v9.999c0 1.067-.868 1.936-1.936 1.936h-5.462c-1.067 0-1.937-.869-1.937-1.936z"/></g></g></svg>