<?xml version="1.0" encoding="iso-8859-1"?>
<svg version="1.1" xmlns="http://www.w3.org/2000/svg" x="0px" y="0px"
	 viewBox="0 0 330.947 330.947" style="enable-background:new 0 0 330.947 330.947;" xml:space="preserve">
<g transform="translate(1 1)">
	<g>
		<path style="fill:#FFE100;" d="M219.638,225.133h-0.173c-0.445,0-0.878-0.053-1.293-0.153c-0.415,0.1-0.848,0.153-1.293,0.153
			h-1.293c-0.445,0-0.878-0.053-1.293-0.153c-0.415,0.1-0.848,0.153-1.293,0.153h-1.293c-0.445,0-0.878-0.053-1.293-0.153
			c-0.415,0.1-0.848,0.153-1.293,0.153h-1.293c-0.445,0-0.878-0.053-1.293-0.153c-0.415,0.1-0.848,0.153-1.293,0.153h-1.293
			c-0.445,0-0.878-0.053-1.293-0.153c-0.415,0.1-0.848,0.153-1.293,0.153h-1.293c-0.445,0-0.878-0.053-1.293-0.153
			c-0.415,0.1-0.848,0.153-1.293,0.153h-1.293c-0.445,0-0.878-0.053-1.293-0.153c-0.415,0.1-0.848,0.153-1.293,0.153h-1.293
			c-0.445,0-0.878-0.053-1.293-0.153c-0.415,0.1-0.848,0.153-1.293,0.153h-1.293c-0.445,0-0.878-0.053-1.293-0.153
			c-0.415,0.1-0.848,0.153-1.293,0.153h-1.293c-0.445,0-0.878-0.053-1.293-0.153c-0.415,0.1-0.848,0.153-1.293,0.153h-1.293
			c-0.445,0-0.878-0.053-1.293-0.153c-0.415,0.1-0.848,0.153-1.293,0.153h-1.293c-0.445,0-0.878-0.053-1.293-0.153
			c-0.415,0.1-0.848,0.153-1.293,0.153h-1.293c-0.445,0-0.878-0.053-1.293-0.153c-0.415,0.1-0.848,0.153-1.293,0.153h-1.293
			c-0.445,0-0.878-0.053-1.293-0.153c-0.415,0.1-0.848,0.153-1.293,0.153h-1.293c-0.445,0-0.879-0.053-1.293-0.153
			c-0.414,0.1-0.848,0.153-1.293,0.153h-1.293c-0.445,0-0.879-0.053-1.293-0.153c-0.414,0.1-0.848,0.153-1.293,0.153h-1.293
			c-0.445,0-0.879-0.053-1.293-0.153c-0.414,0.1-0.848,0.153-1.293,0.153h-1.293c-0.445,0-0.879-0.053-1.293-0.153
			c-0.414,0.1-0.848,0.153-1.293,0.153h-1.293c-0.445,0-0.879-0.053-1.293-0.153c-0.414,0.1-0.848,0.153-1.293,0.153h-1.293
			c-0.445,0-0.879-0.053-1.293-0.153c-0.414,0.1-0.848,0.153-1.293,0.153h-1.293c-0.445,0-0.879-0.053-1.293-0.153
			c-0.414,0.1-0.848,0.153-1.293,0.153h-1.293c-0.445,0-0.879-0.053-1.293-0.153c-0.414,0.1-0.848,0.153-1.293,0.153h-1.293
			c-0.445,0-0.879-0.053-1.293-0.153c-0.414,0.1-0.848,0.153-1.293,0.153h-1.293c-0.445,0-0.879-0.053-1.293-0.153
			c-0.414,0.1-0.848,0.153-1.293,0.153h-1.293c-0.445,0-0.879-0.053-1.293-0.153c-0.414,0.1-0.848,0.153-1.293,0.153h-1.293
			c-0.445,0-0.879-0.053-1.293-0.153c-0.414,0.1-0.848,0.153-1.293,0.153h-1.293c-0.445,0-0.879-0.053-1.293-0.153
			c-0.414,0.1-0.848,0.153-1.293,0.153h-1.293c-0.445,0-0.879-0.053-1.293-0.153c-0.414,0.1-0.848,0.153-1.293,0.153h-1.293
			c-0.445,0-0.879-0.053-1.293-0.153c-0.414,0.1-0.848,0.153-1.293,0.153h-1.293c-0.445,0-0.879-0.053-1.293-0.153
			c-0.414,0.1-0.848,0.153-1.293,0.153h-1.293c-0.445,0-0.879-0.053-1.293-0.153c-0.414,0.1-0.848,0.153-1.293,0.153h-1.293
			c-0.445,0-0.879-0.053-1.293-0.153c-0.414,0.1-0.848,0.153-1.293,0.153h-1.293c-0.445,0-0.879-0.053-1.293-0.153
			c-0.414,0.1-0.848,0.153-1.293,0.153h-1.293c-0.445,0-0.879-0.053-1.293-0.153c-0.414,0.1-0.848,0.153-1.293,0.153h-1.293
			c-0.445,0-0.879-0.053-1.293-0.153c-0.414,0.1-0.848,0.153-1.293,0.153h-1.293c-0.445,0-0.879-0.053-1.293-0.153
			c-0.414,0.1-0.848,0.153-1.293,0.153h-1.293c-0.445,0-0.879-0.053-1.293-0.153c-0.414,0.1-0.848,0.153-1.293,0.153h-1.293
			c-0.445,0-0.879-0.053-1.293-0.153c-0.414,0.1-0.848,0.153-1.293,0.153h-1.293c-0.445,0-0.879-0.053-1.293-0.153
			c-0.414,0.1-0.848,0.153-1.293,0.153h-1.293c-0.445,0-0.879-0.053-1.293-0.153c-0.414,0.1-0.848,0.153-1.293,0.153h-1.293
			c-0.445,0-0.879-0.053-1.293-0.153c-0.414,0.1-0.848,0.153-1.293,0.153h-1.293c-0.445,0-0.879-0.053-1.293-0.153
			c-0.414,0.1-0.848,0.153-1.293,0.153h-1.293c-0.445,0-0.879-0.053-1.293-0.153c-0.414,0.1-0.848,0.153-1.293,0.153h-1.293
			c-0.445,0-0.879-0.053-1.293-0.153c-0.414,0.1-0.848,0.153-1.293,0.153h-1.293c-0.445,0-0.879-0.053-1.293-0.153
			c-0.414,0.1-0.848,0.153-1.293,0.153H44.92c-0.445,0-0.879-0.053-1.293-0.153c-0.414,0.1-0.848,0.153-1.293,0.153h-1.293
			c-0.445,0-0.879-0.053-1.293-0.153c-0.414,0.1-0.848,0.153-1.293,0.153h-1.293c-0.445,0-0.879-0.053-1.293-0.153
			c-0.414,0.1-0.848,0.153-1.293,0.153h-1.293c-0.445,0-0.879-0.053-1.293-0.153c-0.414,0.1-0.848,0.153-1.293,0.153h-1.293
			c-0.445,0-0.879-0.053-1.293-0.153c-0.414,0.1-0.848,0.153-1.293,0.153h-1.293c-0.445,0-0.879-0.053-1.293-0.153
			c-0.414,0.1-0.848,0.153-1.293,0.153h-1.293c-0.445,0-0.879-0.053-1.293-0.153c-0.414,0.1-0.848,0.153-1.293,0.153h-1.293
			c-0.445,0-0.879-0.053-1.293-0.153c-0.414,0.1-0.848,0.153-1.293,0.153H13.89c-0.445,0-0.879-0.053-1.293-0.153
			c-0.414,0.1-0.848,0.153-1.293,0.153h-1.293c-3.035,0-5.495-2.46-5.495-5.495v-0.688c0-0.445,0.053-0.878,0.153-1.293
			c-0.1-0.415-0.153-0.848-0.153-1.293v-1.293c0-0.445,0.053-0.878,0.153-1.293c-0.1-0.415-0.153-0.848-0.153-1.293v-1.293
			c0-0.445,0.053-0.878,0.153-1.293c-0.1-0.415-0.153-0.848-0.153-1.293v-1.293c0-0.445,0.053-0.878,0.153-1.293
			c-0.1-0.415-0.153-0.848-0.153-1.293v-1.293c0-0.445,0.053-0.878,0.153-1.293c-0.1-0.415-0.153-0.848-0.153-1.293v-1.293
			c0-0.445,0.053-0.878,0.153-1.293c-0.1-0.415-0.153-0.848-0.153-1.293v-1.293c0-0.445,0.053-0.878,0.153-1.293
			c-0.1-0.415-0.153-0.848-0.153-1.293v-1.293c0-0.445,0.053-0.878,0.153-1.293c-0.1-0.415-0.153-0.848-0.153-1.293v-1.293
			c0-0.445,0.053-0.878,0.153-1.293c-0.1-0.415-0.153-0.848-0.153-1.293v-1.293c0-0.445,0.053-0.878,0.153-1.293
			c-0.1-0.415-0.153-0.848-0.153-1.293v-1.293c0-0.445,0.053-0.878,0.153-1.293c-0.1-0.415-0.153-0.848-0.153-1.293v-1.293
			c0-0.445,0.053-0.878,0.153-1.293c-0.1-0.415-0.153-0.848-0.153-1.293v-1.293c0-0.445,0.053-0.878,0.153-1.293
			c-0.1-0.415-0.153-0.848-0.153-1.293v-1.293c0-0.445,0.053-0.878,0.153-1.293c-0.1-0.415-0.153-0.848-0.153-1.293v-1.293
			c0-0.445,0.053-0.879,0.153-1.293c-0.1-0.414-0.153-0.848-0.153-1.293v-1.293c0-0.445,0.053-0.879,0.153-1.293
			c-0.1-0.414-0.153-0.848-0.153-1.293v-1.293c0-0.445,0.053-0.879,0.153-1.293c-0.1-0.414-0.153-0.848-0.153-1.293v-1.293
			c0-0.445,0.053-0.879,0.153-1.293c-0.1-0.414-0.153-0.848-0.153-1.293v-1.293c0-0.445,0.053-0.879,0.153-1.293
			c-0.1-0.414-0.153-0.848-0.153-1.293v-1.293c0-0.445,0.053-0.879,0.153-1.293c-0.1-0.414-0.153-0.848-0.153-1.293v-1.293
			c0-0.445,0.053-0.879,0.153-1.293c-0.1-0.414-0.153-0.848-0.153-1.293v-1.293c0-0.445,0.053-0.879,0.153-1.293
			c-0.1-0.414-0.153-0.848-0.153-1.293v-1.293c0-0.445,0.053-0.879,0.153-1.293c-0.1-0.414-0.153-0.848-0.153-1.293v-1.293
			c0-0.445,0.053-0.879,0.153-1.293c-0.1-0.414-0.153-0.848-0.153-1.293v-1.293c0-0.445,0.053-0.879,0.153-1.293
			c-0.1-0.414-0.153-0.848-0.153-1.293v-1.293c0-0.445,0.053-0.879,0.153-1.293c-0.1-0.414-0.153-0.848-0.153-1.293v-1.293
			c0-0.445,0.053-0.879,0.153-1.293c-0.1-0.414-0.153-0.848-0.153-1.293v-1.293c0-0.445,0.053-0.879,0.153-1.293
			c-0.1-0.414-0.153-0.848-0.153-1.293v-1.293c0-0.445,0.053-0.879,0.153-1.293c-0.1-0.414-0.153-0.848-0.153-1.293v-1.293
			c0-0.445,0.053-0.879,0.153-1.293c-0.1-0.414-0.153-0.848-0.153-1.293v-1.293c0-0.445,0.053-0.879,0.153-1.293
			c-0.1-0.414-0.153-0.848-0.153-1.293v-1.293c0-0.445,0.053-0.879,0.153-1.293c-0.1-0.414-0.153-0.848-0.153-1.293v-1.293
			c0-0.445,0.053-0.879,0.153-1.293c-0.1-0.414-0.153-0.848-0.153-1.293V90.95c0-0.445,0.053-0.879,0.153-1.293
			c-0.1-0.414-0.153-0.848-0.153-1.293v-1.293c0-0.445,0.053-0.879,0.153-1.293c-0.1-0.414-0.153-0.848-0.153-1.293v-1.293
			c0-0.445,0.053-0.879,0.153-1.293c-0.1-0.414-0.153-0.848-0.153-1.293v-1.293c0-0.445,0.053-0.879,0.153-1.293
			c-0.1-0.414-0.153-0.848-0.153-1.293v-1.293c0-0.445,0.053-0.879,0.153-1.293c-0.1-0.414-0.153-0.848-0.153-1.293v-1.293
			c0-0.445,0.053-0.879,0.153-1.293c-0.1-0.414-0.153-0.848-0.153-1.293v-1.293c0-0.445,0.053-0.879,0.153-1.293
			c-0.1-0.414-0.153-0.848-0.153-1.293v-1.293c0-0.445,0.053-0.879,0.153-1.293c-0.1-0.414-0.153-0.848-0.153-1.293V59.92
			c0-0.445,0.053-0.879,0.153-1.293c-0.1-0.414-0.153-0.848-0.153-1.293v-1.293c0-0.445,0.053-0.879,0.153-1.293
			c-0.1-0.414-0.153-0.848-0.153-1.293v-1.293c0-0.445,0.053-0.879,0.153-1.293c-0.1-0.414-0.153-0.848-0.153-1.293v-1.293
			c0-0.445,0.053-0.879,0.153-1.293c-0.1-0.414-0.153-0.848-0.153-1.293v-1.293c0-0.445,0.053-0.879,0.153-1.293
			c-0.1-0.414-0.153-0.848-0.153-1.293v-1.293c0-0.445,0.053-0.879,0.153-1.293c-0.1-0.414-0.153-0.848-0.153-1.293v-1.293
			c0-0.445,0.053-0.879,0.153-1.293c-0.1-0.414-0.153-0.848-0.153-1.293v-1.293c0-0.445,0.053-0.879,0.153-1.293
			c-0.1-0.414-0.153-0.848-0.153-1.293v-1.293c0-0.445,0.053-0.879,0.153-1.293c-0.1-0.414-0.153-0.848-0.153-1.293v-1.293
			c0-0.445,0.053-0.879,0.153-1.293c-0.1-0.414-0.153-0.848-0.153-1.293v-1.293c0-0.445,0.053-0.879,0.153-1.293
			c-0.1-0.414-0.153-0.848-0.153-1.293v-1.293c0-0.445,0.053-0.879,0.153-1.293c-0.1-0.414-0.153-0.848-0.153-1.293v-1.293
			c0-0.445,0.053-0.879,0.153-1.293c-0.1-0.414-0.153-0.848-0.153-1.293v-0.776c0-3.035,2.46-5.495,5.495-5.495h0.517
			c0.445,0,0.879,0.053,1.293,0.153c0.414-0.1,0.848-0.153,1.293-0.153h1.293c0.445,0,0.879,0.053,1.293,0.153
			c0.414-0.1,0.848-0.153,1.293-0.153h1.293c0.445,0,0.879,0.053,1.293,0.153c0.414-0.1,0.848-0.153,1.293-0.153h1.293
			c0.445,0,0.879,0.053,1.293,0.153c0.414-0.1,0.848-0.153,1.293-0.153h1.293c0.445,0,0.879,0.053,1.293,0.153
			c0.414-0.1,0.848-0.153,1.293-0.153h1.293c0.445,0,0.879,0.053,1.293,0.153c0.414-0.1,0.848-0.153,1.293-0.153H33.8
			c0.445,0,0.879,0.053,1.293,0.153c0.414-0.1,0.848-0.153,1.293-0.153h1.293c0.445,0,0.879,0.053,1.293,0.153
			c0.414-0.1,0.848-0.153,1.293-0.153h1.293c0.445,0,0.879,0.053,1.293,0.153c0.414-0.1,0.848-0.153,1.293-0.153h1.293
			c0.445,0,0.879,0.053,1.293,0.153c0.414-0.1,0.848-0.153,1.293-0.153h1.293c0.445,0,0.879,0.053,1.293,0.153
			c0.414-0.1,0.848-0.153,1.293-0.153h1.293c0.445,0,0.879,0.053,1.293,0.153c0.414-0.1,0.848-0.153,1.293-0.153h1.293
			c0.445,0,0.879,0.053,1.293,0.153c0.414-0.1,0.848-0.153,1.293-0.153h1.293c0.445,0,0.879,0.053,1.293,0.153
			c0.414-0.1,0.848-0.153,1.293-0.153h1.293c0.445,0,0.879,0.053,1.293,0.153c0.414-0.1,0.848-0.153,1.293-0.153h1.293
			c0.445,0,0.879,0.053,1.293,0.153c0.414-0.1,0.848-0.153,1.293-0.153h1.293c0.445,0,0.879,0.053,1.293,0.153
			c0.414-0.1,0.848-0.153,1.293-0.153h1.293c0.445,0,0.879,0.053,1.293,0.153c0.414-0.1,0.848-0.153,1.293-0.153h1.293
			c0.445,0,0.879,0.053,1.293,0.153c0.414-0.1,0.848-0.153,1.293-0.153h1.293c0.445,0,0.879,0.053,1.293,0.153
			c0.414-0.1,0.848-0.153,1.293-0.153h1.293c0.445,0,0.879,0.053,1.293,0.153c0.414-0.1,0.848-0.153,1.293-0.153h1.293
			c0.445,0,0.879,0.053,1.293,0.153c0.414-0.1,0.848-0.153,1.293-0.153h1.293c0.445,0,0.879,0.053,1.293,0.153
			c0.414-0.1,0.848-0.153,1.293-0.153h1.293c0.445,0,0.879,0.053,1.293,0.153c0.414-0.1,0.848-0.153,1.293-0.153h1.293
			c0.445,0,0.879,0.053,1.293,0.153c0.414-0.1,0.848-0.153,1.293-0.153h1.293c0.445,0,0.879,0.053,1.293,0.153
			c0.414-0.1,0.848-0.153,1.293-0.153h1.293c0.445,0,0.879,0.053,1.293,0.153c0.414-0.1,0.848-0.153,1.293-0.153h1.293
			c0.445,0,0.879,0.053,1.293,0.153c0.414-0.1,0.848-0.153,1.293-0.153h1.293c0.445,0,0.879,0.053,1.293,0.153
			c0.414-0.1,0.848-0.153,1.293-0.153h1.293c0.445,0,0.879,0.053,1.293,0.153c0.414-0.1,0.848-0.153,1.293-0.153h1.293
			c0.445,0,0.879,0.053,1.293,0.153c0.414-0.1,0.848-0.153,1.293-0.153h1.293c0.445,0,0.879,0.053,1.293,0.153
			c0.414-0.1,0.848-0.153,1.293-0.153h1.293c0.445,0,0.879,0.053,1.293,0.153c0.414-0.1,0.848-0.153,1.293-0.153h1.293
			c0.445,0,0.879,0.053,1.293,0.153c0.414-0.1,0.848-0.153,1.293-0.153h1.293c0.445,0,0.879,0.053,1.293,0.153
			c0.414-0.1,0.848-0.153,1.293-0.153h1.293c0.445,0,0.879,0.053,1.293,0.153c0.414-0.1,0.848-0.153,1.293-0.153h1.293
			c0.445,0,0.879,0.053,1.293,0.153c0.414-0.1,0.848-0.153,1.293-0.153h1.293c0.445,0,0.879,0.053,1.293,0.153
			c0.414-0.1,0.848-0.153,1.293-0.153h1.293c0.445,0,0.879,0.053,1.293,0.153c0.414-0.1,0.848-0.153,1.293-0.153h1.293
			c0.445,0,0.879,0.053,1.293,0.153c0.414-0.1,0.848-0.153,1.293-0.153h1.293c0.445,0,0.878,0.053,1.293,0.153
			c0.415-0.1,0.848-0.153,1.293-0.153h1.293c0.445,0,0.878,0.053,1.293,0.153c0.415-0.1,0.848-0.153,1.293-0.153h1.293
			c0.445,0,0.878,0.053,1.293,0.153c0.415-0.1,0.848-0.153,1.293-0.153h1.293c0.445,0,0.878,0.053,1.293,0.153
			c0.415-0.1,0.848-0.153,1.293-0.153h1.293c0.445,0,0.878,0.053,1.293,0.153c0.415-0.1,0.848-0.153,1.293-0.153h1.293
			c0.445,0,0.878,0.053,1.293,0.153c0.415-0.1,0.848-0.153,1.293-0.153h1.293c0.445,0,0.878,0.053,1.293,0.153
			c0.415-0.1,0.848-0.153,1.293-0.153h1.293c0.445,0,0.878,0.053,1.293,0.153c0.415-0.1,0.848-0.153,1.293-0.153h1.293
			c0.445,0,0.878,0.053,1.293,0.153c0.415-0.1,0.848-0.153,1.293-0.153h1.293c0.445,0,0.878,0.053,1.293,0.153
			c0.415-0.1,0.848-0.153,1.293-0.153h1.293c0.445,0,0.878,0.053,1.293,0.153c0.415-0.1,0.848-0.153,1.293-0.153h1.293
			c0.445,0,0.878,0.053,1.293,0.153c0.415-0.1,0.848-0.153,1.293-0.153h1.293c0.445,0,0.878,0.053,1.293,0.153
			c0.415-0.1,0.848-0.153,1.293-0.153h1.293c0.445,0,0.878,0.053,1.293,0.153c0.415-0.1,0.848-0.153,1.293-0.153h0.948
			c3.035,0,5.495,2.46,5.495,5.495v0.345c0,0.445-0.053,0.879-0.153,1.293c0.1,0.414,0.153,0.848,0.153,1.293v1.293
			c0,0.445-0.053,0.879-0.153,1.293c0.1,0.414,0.153,0.848,0.153,1.293v1.293c0,0.445-0.053,0.879-0.153,1.293
			c0.1,0.414,0.153,0.848,0.153,1.293v1.293c0,0.445-0.053,0.879-0.153,1.293c0.1,0.414,0.153,0.848,0.153,1.293v1.293
			c0,0.445-0.053,0.879-0.153,1.293c0.1,0.414,0.153,0.848,0.153,1.293v1.293c0,0.445-0.053,0.879-0.153,1.293
			c0.1,0.414,0.153,0.848,0.153,1.293v1.293c0,0.445-0.053,0.879-0.153,1.293c0.1,0.414,0.153,0.848,0.153,1.293v1.293
			c0,0.445-0.053,0.879-0.153,1.293c0.1,0.414,0.153,0.848,0.153,1.293v1.293c0,0.445-0.053,0.879-0.153,1.293
			c0.1,0.414,0.153,0.848,0.153,1.293v1.293c0,0.445-0.053,0.879-0.153,1.293c0.1,0.414,0.153,0.848,0.153,1.293v1.293
			c0,0.445-0.053,0.879-0.153,1.293c0.1,0.414,0.153,0.848,0.153,1.293v1.293c0,0.445-0.053,0.879-0.153,1.293
			c0.1,0.414,0.153,0.848,0.153,1.293v1.293c0,0.445-0.053,0.879-0.153,1.293c0.1,0.414,0.153,0.848,0.153,1.293v1.293
			c0,0.445-0.053,0.879-0.153,1.293c0.1,0.414,0.153,0.848,0.153,1.293v1.293c0,0.445-0.053,0.879-0.153,1.293
			c0.1,0.414,0.153,0.848,0.153,1.293v1.293c0,0.445-0.053,0.879-0.153,1.293c0.1,0.414,0.153,0.848,0.153,1.293v1.293
			c0,0.445-0.053,0.879-0.153,1.293c0.1,0.414,0.153,0.848,0.153,1.293v1.293c0,0.445-0.053,0.879-0.153,1.293
			c0.1,0.414,0.153,0.848,0.153,1.293v1.293c0,0.445-0.053,0.879-0.153,1.293c0.1,0.414,0.153,0.848,0.153,1.293v1.293
			c0,0.445-0.053,0.879-0.153,1.293c0.1,0.414,0.153,0.848,0.153,1.293v1.293c0,0.445-0.053,0.879-0.153,1.293
			c0.1,0.414,0.153,0.848,0.153,1.293v1.293c0,0.445-0.053,0.879-0.153,1.293c0.1,0.414,0.153,0.848,0.153,1.293v1.293
			c0,0.445-0.053,0.879-0.153,1.293c0.1,0.414,0.153,0.848,0.153,1.293v1.293c0,0.445-0.053,0.879-0.153,1.293
			c0.1,0.414,0.153,0.848,0.153,1.293v1.293c0,0.445-0.053,0.879-0.153,1.293c0.1,0.414,0.153,0.848,0.153,1.293v1.293
			c0,0.445-0.053,0.879-0.153,1.293c0.1,0.414,0.153,0.848,0.153,1.293v1.293c0,0.445-0.053,0.879-0.153,1.293
			c0.1,0.414,0.153,0.848,0.153,1.293v1.293c0,0.445-0.053,0.879-0.153,1.293c0.1,0.415,0.153,0.848,0.153,1.293v1.293
			c0,0.445-0.053,0.879-0.153,1.293c0.1,0.414,0.153,0.848,0.153,1.293v1.293c0,0.445-0.053,0.879-0.153,1.293
			c0.1,0.414,0.153,0.848,0.153,1.293v1.293c0,0.445-0.053,0.879-0.153,1.293c0.1,0.414,0.153,0.848,0.153,1.293v1.293
			c0,0.445-0.053,0.879-0.153,1.293c0.1,0.414,0.153,0.848,0.153,1.293v1.293c0,0.445-0.053,0.879-0.153,1.293
			c0.1,0.414,0.153,0.848,0.153,1.293v1.293c0,0.445-0.053,0.879-0.153,1.293c0.1,0.414,0.153,0.848,0.153,1.293v1.293
			c0,0.445-0.053,0.879-0.153,1.293c0.1,0.414,0.153,0.848,0.153,1.293v1.293c0,0.445-0.053,0.879-0.153,1.293
			c0.1,0.414,0.153,0.848,0.153,1.293v1.293c0,0.445-0.053,0.879-0.153,1.293c0.1,0.414,0.153,0.848,0.153,1.293v1.293
			c0,0.445-0.053,0.879-0.153,1.293c0.1,0.414,0.153,0.848,0.153,1.293v1.293c0,0.445-0.053,0.879-0.153,1.293
			c0.1,0.414,0.153,0.848,0.153,1.293v1.293c0,0.445-0.053,0.879-0.153,1.293c0.1,0.414,0.153,0.848,0.153,1.293v1.293
			c0,0.445-0.053,0.878-0.153,1.293c0.1,0.415,0.153,0.848,0.153,1.293v1.293c0,0.445-0.053,0.878-0.153,1.293
			c0.1,0.415,0.153,0.848,0.153,1.293v1.293c0,0.445-0.053,0.878-0.153,1.293c0.1,0.415,0.153,0.848,0.153,1.293v1.293
			c0,0.445-0.053,0.878-0.153,1.293c0.1,0.415,0.153,0.848,0.153,1.293v1.293c0,0.445-0.053,0.878-0.153,1.293
			c0.1,0.415,0.153,0.848,0.153,1.293v1.293c0,0.445-0.053,0.878-0.153,1.293c0.1,0.415,0.153,0.848,0.153,1.293v1.293
			c0,0.445-0.053,0.878-0.153,1.293c0.1,0.415,0.153,0.848,0.153,1.293v1.293c0,0.445-0.053,0.878-0.153,1.293
			c0.1,0.415,0.153,0.848,0.153,1.293v1.293c0,0.445-0.053,0.878-0.153,1.293c0.1,0.415,0.153,0.848,0.153,1.293v1.293
			c0,0.445-0.053,0.878-0.153,1.293c0.1,0.415,0.153,0.848,0.153,1.293v1.293c0,0.445-0.053,0.878-0.153,1.293
			c0.1,0.415,0.153,0.848,0.153,1.293v1.293c0,0.445-0.053,0.878-0.153,1.293c0.1,0.415,0.153,0.848,0.153,1.293v1.293
			c0,0.445-0.053,0.878-0.153,1.293c0.1,0.415,0.153,0.848,0.153,1.293v1.293c0,0.445-0.053,0.878-0.153,1.293
			c0.1,0.415,0.153,0.848,0.153,1.293v1.12C225.133,222.673,222.673,225.133,219.638,225.133z M207.829,214.143h1.293
			c0.445,0,0.878,0.053,1.293,0.153c0.415-0.1,0.848-0.153,1.293-0.153h1.293c0.396,0,0.782,0.041,1.155,0.122
			c0.021-0.314,0.069-0.621,0.14-0.919c-0.1-0.415-0.153-0.848-0.153-1.293v-1.293c0-0.445,0.053-0.878,0.153-1.293
			c-0.1-0.415-0.153-0.848-0.153-1.293v-1.293c0-0.445,0.053-0.878,0.153-1.293c-0.1-0.415-0.153-0.848-0.153-1.293v-1.293
			c0-0.445,0.053-0.878,0.153-1.293c-0.1-0.415-0.153-0.848-0.153-1.293v-1.293c0-0.445,0.053-0.878,0.153-1.293
			c-0.1-0.415-0.153-0.848-0.153-1.293v-1.293c0-0.445,0.053-0.878,0.153-1.293c-0.1-0.415-0.153-0.848-0.153-1.293v-1.293
			c0-0.445,0.053-0.878,0.153-1.293c-0.1-0.415-0.153-0.848-0.153-1.293v-1.293c0-0.445,0.053-0.878,0.153-1.293
			c-0.1-0.415-0.153-0.848-0.153-1.293v-1.293c0-0.445,0.053-0.878,0.153-1.293c-0.1-0.415-0.153-0.848-0.153-1.293v-1.293
			c0-0.445,0.053-0.878,0.153-1.293c-0.1-0.415-0.153-0.848-0.153-1.293v-1.293c0-0.445,0.053-0.878,0.153-1.293
			c-0.1-0.415-0.153-0.848-0.153-1.293v-1.293c0-0.445,0.053-0.878,0.153-1.293c-0.1-0.415-0.153-0.848-0.153-1.293v-1.293
			c0-0.445,0.053-0.878,0.153-1.293c-0.1-0.415-0.153-0.848-0.153-1.293v-1.293c0-0.445,0.053-0.879,0.153-1.293
			c-0.1-0.414-0.153-0.848-0.153-1.293v-1.293c0-0.445,0.053-0.879,0.153-1.293c-0.1-0.414-0.153-0.848-0.153-1.293v-1.293
			c0-0.445,0.053-0.879,0.153-1.293c-0.1-0.414-0.153-0.848-0.153-1.293v-1.293c0-0.445,0.053-0.879,0.153-1.293
			c-0.1-0.414-0.153-0.848-0.153-1.293V148.7c0-0.445,0.053-0.879,0.153-1.293c-0.1-0.414-0.153-0.848-0.153-1.293v-1.293
			c0-0.445,0.053-0.879,0.153-1.293c-0.1-0.414-0.153-0.848-0.153-1.293v-1.293c0-0.445,0.053-0.879,0.153-1.293
			c-0.1-0.414-0.153-0.848-0.153-1.293v-1.293c0-0.445,0.053-0.879,0.153-1.293c-0.1-0.414-0.153-0.848-0.153-1.293v-1.293
			c0-0.445,0.053-0.879,0.153-1.293c-0.1-0.414-0.153-0.848-0.153-1.293v-1.293c0-0.445,0.053-0.879,0.153-1.293
			c-0.1-0.414-0.153-0.848-0.153-1.293v-1.293c0-0.445,0.053-0.879,0.153-1.293c-0.1-0.414-0.153-0.848-0.153-1.293v-1.293
			c0-0.445,0.053-0.879,0.153-1.293c-0.1-0.414-0.153-0.848-0.153-1.293v-1.293c0-0.445,0.053-0.879,0.153-1.293
			c-0.1-0.414-0.153-0.848-0.153-1.293v-1.293c0-0.445,0.053-0.879,0.153-1.293c-0.1-0.414-0.153-0.848-0.153-1.293v-1.293
			c0-0.445,0.053-0.879,0.153-1.293c-0.1-0.415-0.153-0.848-0.153-1.293v-1.293c0-0.445,0.053-0.879,0.153-1.293
			c-0.1-0.414-0.153-0.848-0.153-1.293v-1.293c0-0.445,0.053-0.879,0.153-1.293c-0.1-0.414-0.153-0.848-0.153-1.293v-1.293
			c0-0.445,0.053-0.879,0.153-1.293c-0.1-0.414-0.153-0.848-0.153-1.293v-1.293c0-0.445,0.053-0.879,0.153-1.293
			c-0.1-0.414-0.153-0.848-0.153-1.293v-1.293c0-0.445,0.053-0.879,0.153-1.293c-0.1-0.414-0.153-0.848-0.153-1.293v-1.293
			c0-0.445,0.053-0.879,0.153-1.293c-0.1-0.414-0.153-0.848-0.153-1.293V82.76c0-0.445,0.053-0.879,0.153-1.293
			c-0.1-0.414-0.153-0.848-0.153-1.293v-1.293c0-0.445,0.053-0.879,0.153-1.293c-0.1-0.414-0.153-0.848-0.153-1.293v-1.293
			c0-0.445,0.053-0.879,0.153-1.293c-0.1-0.414-0.153-0.848-0.153-1.293v-1.293c0-0.445,0.053-0.879,0.153-1.293
			c-0.1-0.414-0.153-0.848-0.153-1.293v-1.293c0-0.445,0.053-0.879,0.153-1.293c-0.1-0.414-0.153-0.848-0.153-1.293v-1.293
			c0-0.445,0.053-0.879,0.153-1.293c-0.1-0.414-0.153-0.848-0.153-1.293v-1.293c0-0.445,0.053-0.879,0.153-1.293
			c-0.1-0.414-0.153-0.848-0.153-1.293v-1.293c0-0.445,0.053-0.879,0.153-1.293c-0.1-0.414-0.153-0.848-0.153-1.293V51.73
			c0-0.445,0.053-0.879,0.153-1.293c-0.1-0.414-0.153-0.848-0.153-1.293v-1.293c0-0.445,0.053-0.879,0.153-1.293
			c-0.1-0.414-0.153-0.848-0.153-1.293v-1.293c0-0.445,0.053-0.879,0.153-1.293c-0.1-0.414-0.153-0.848-0.153-1.293v-1.293
			c0-0.445,0.053-0.879,0.153-1.293c-0.1-0.414-0.153-0.848-0.153-1.293v-1.293c0-0.445,0.053-0.879,0.153-1.293
			c-0.1-0.414-0.153-0.848-0.153-1.293v-1.293c0-0.445,0.053-0.879,0.153-1.293c-0.1-0.414-0.153-0.848-0.153-1.293v-1.293
			c0-0.445,0.053-0.879,0.153-1.293c-0.1-0.414-0.153-0.848-0.153-1.293v-1.293c0-0.445,0.053-0.879,0.153-1.293
			c-0.1-0.414-0.153-0.848-0.153-1.293V20.7c0-0.445,0.053-0.879,0.153-1.293c-0.1-0.414-0.153-0.848-0.153-1.293v-1.293
			c0-0.445,0.053-0.879,0.153-1.293c-0.003-0.015-0.007-0.03-0.011-0.046c-0.261-0.025-0.518-0.068-0.767-0.128
			c-0.415,0.1-0.848,0.153-1.293,0.153h-1.293c-0.445,0-0.878-0.053-1.293-0.153c-0.415,0.1-0.848,0.153-1.293,0.153h-1.293
			c-0.445,0-0.878-0.053-1.293-0.153c-0.415,0.1-0.848,0.153-1.293,0.153h-1.293c-0.445,0-0.878-0.053-1.293-0.153
			c-0.415,0.1-0.848,0.153-1.293,0.153h-1.293c-0.445,0-0.878-0.053-1.293-0.153c-0.415,0.1-0.848,0.153-1.293,0.153h-1.293
			c-0.445,0-0.878-0.053-1.293-0.153c-0.415,0.1-0.848,0.153-1.293,0.153h-1.293c-0.445,0-0.878-0.053-1.293-0.153
			c-0.415,0.1-0.848,0.153-1.293,0.153h-1.293c-0.445,0-0.878-0.053-1.293-0.153c-0.415,0.1-0.848,0.153-1.293,0.153h-1.293
			c-0.445,0-0.878-0.053-1.293-0.153c-0.415,0.1-0.848,0.153-1.293,0.153h-1.293c-0.445,0-0.878-0.053-1.293-0.153
			c-0.415,0.1-0.848,0.153-1.293,0.153h-1.293c-0.445,0-0.878-0.053-1.293-0.153c-0.415,0.1-0.848,0.153-1.293,0.153h-1.293
			c-0.445,0-0.878-0.053-1.293-0.153c-0.415,0.1-0.848,0.153-1.293,0.153h-1.293c-0.445,0-0.878-0.053-1.293-0.153
			c-0.415,0.1-0.848,0.153-1.293,0.153h-1.293c-0.445,0-0.879-0.053-1.293-0.153c-0.414,0.1-0.848,0.153-1.293,0.153h-1.293
			c-0.445,0-0.879-0.053-1.293-0.153c-0.414,0.1-0.848,0.153-1.293,0.153h-1.293c-0.445,0-0.879-0.053-1.293-0.153
			c-0.414,0.1-0.848,0.153-1.293,0.153h-1.293c-0.445,0-0.879-0.053-1.293-0.153c-0.414,0.1-0.848,0.153-1.293,0.153h-1.293
			c-0.445,0-0.879-0.053-1.293-0.153c-0.414,0.1-0.848,0.153-1.293,0.153h-1.293c-0.445,0-0.879-0.053-1.293-0.153
			c-0.414,0.1-0.848,0.153-1.293,0.153h-1.293c-0.445,0-0.879-0.053-1.293-0.153c-0.414,0.1-0.848,0.153-1.293,0.153h-1.293
			c-0.445,0-0.879-0.053-1.293-0.153c-0.414,0.1-0.848,0.153-1.293,0.153h-1.293c-0.445,0-0.879-0.053-1.293-0.153
			c-0.414,0.1-0.848,0.153-1.293,0.153h-1.293c-0.445,0-0.879-0.053-1.293-0.153c-0.414,0.1-0.848,0.153-1.293,0.153h-1.293
			c-0.445,0-0.879-0.053-1.293-0.153c-0.414,0.1-0.848,0.153-1.293,0.153h-1.293c-0.445,0-0.879-0.053-1.293-0.153
			c-0.414,0.1-0.848,0.153-1.293,0.153h-1.293c-0.445,0-0.879-0.053-1.293-0.153c-0.414,0.1-0.848,0.153-1.293,0.153h-1.293
			c-0.445,0-0.879-0.053-1.293-0.153c-0.414,0.1-0.848,0.153-1.293,0.153h-1.293c-0.445,0-0.879-0.053-1.293-0.153
			c-0.414,0.1-0.848,0.153-1.293,0.153h-1.293c-0.445,0-0.879-0.053-1.293-0.153c-0.414,0.1-0.848,0.153-1.293,0.153h-1.293
			c-0.445,0-0.879-0.053-1.293-0.153c-0.414,0.1-0.848,0.153-1.293,0.153h-1.293c-0.445,0-0.879-0.053-1.293-0.153
			c-0.414,0.1-0.848,0.153-1.293,0.153h-1.293c-0.445,0-0.879-0.053-1.293-0.153c-0.414,0.1-0.848,0.153-1.293,0.153h-1.293
			c-0.445,0-0.879-0.053-1.293-0.153c-0.414,0.1-0.848,0.153-1.293,0.153h-1.293c-0.445,0-0.879-0.053-1.293-0.153
			c-0.414,0.1-0.848,0.153-1.293,0.153h-1.293c-0.445,0-0.879-0.053-1.293-0.153c-0.414,0.1-0.848,0.153-1.293,0.153h-1.293
			c-0.445,0-0.879-0.053-1.293-0.153c-0.414,0.1-0.848,0.153-1.293,0.153h-1.293c-0.445,0-0.879-0.053-1.293-0.153
			c-0.414,0.1-0.848,0.153-1.293,0.153h-1.293c-0.445,0-0.879-0.053-1.293-0.153c-0.414,0.1-0.848,0.153-1.293,0.153h-1.293
			c-0.445,0-0.879-0.053-1.293-0.153c-0.414,0.1-0.848,0.153-1.293,0.153h-1.293c-0.445,0-0.879-0.053-1.293-0.153
			c-0.414,0.1-0.848,0.153-1.293,0.153h-1.293c-0.445,0-0.879-0.053-1.293-0.153c-0.414,0.1-0.848,0.153-1.293,0.153H55.78
			c-0.445,0-0.879-0.053-1.293-0.153c-0.414,0.1-0.848,0.153-1.293,0.153h-1.293c-0.445,0-0.879-0.053-1.293-0.153
			c-0.414,0.1-0.848,0.153-1.293,0.153h-1.293c-0.445,0-0.879-0.053-1.293-0.153c-0.414,0.1-0.848,0.153-1.293,0.153h-1.293
			c-0.445,0-0.879-0.053-1.293-0.153c-0.414,0.1-0.848,0.153-1.293,0.153h-1.293c-0.445,0-0.879-0.053-1.293-0.153
			c-0.414,0.1-0.848,0.153-1.293,0.153h-1.293c-0.445,0-0.879-0.053-1.293-0.153c-0.414,0.1-0.848,0.153-1.293,0.153h-1.293
			c-0.445,0-0.879-0.053-1.293-0.153c-0.414,0.1-0.848,0.153-1.293,0.153h-1.293c-0.445,0-0.879-0.053-1.293-0.153
			c-0.414,0.1-0.848,0.153-1.293,0.153H24.75c-0.445,0-0.879-0.053-1.293-0.153c-0.414,0.1-0.848,0.153-1.293,0.153h-1.293
			c-0.445,0-0.879-0.053-1.293-0.153c-0.414,0.1-0.848,0.153-1.293,0.153h-1.293c-0.445,0-0.879-0.053-1.293-0.153
			c-0.08,0.019-0.162,0.037-0.242,0.053c-0.025,0.188-0.06,0.372-0.104,0.553c0.1,0.414,0.153,0.848,0.153,1.293v1.293
			c0,0.445-0.053,0.879-0.153,1.293c0.1,0.414,0.153,0.848,0.153,1.293v1.293c0,0.445-0.053,0.879-0.153,1.293
			c0.1,0.414,0.153,0.848,0.153,1.293v1.293c0,0.445-0.053,0.879-0.153,1.293c0.1,0.414,0.153,0.848,0.153,1.293v1.293
			c0,0.445-0.053,0.879-0.153,1.293c0.1,0.414,0.153,0.848,0.153,1.293v1.293c0,0.445-0.053,0.879-0.153,1.293
			c0.1,0.414,0.153,0.848,0.153,1.293v1.293c0,0.445-0.053,0.879-0.153,1.293c0.1,0.414,0.153,0.848,0.153,1.293v1.293
			c0,0.445-0.053,0.879-0.153,1.293c0.1,0.414,0.153,0.848,0.153,1.293v1.293c0,0.445-0.053,0.879-0.153,1.293
			c0.1,0.414,0.153,0.848,0.153,1.293v1.293c0,0.445-0.053,0.879-0.153,1.293c0.1,0.414,0.153,0.848,0.153,1.293v1.293
			c0,0.445-0.053,0.879-0.153,1.293c0.1,0.414,0.153,0.848,0.153,1.293v1.293c0,0.445-0.053,0.879-0.153,1.293
			c0.1,0.414,0.153,0.848,0.153,1.293v1.293c0,0.445-0.053,0.879-0.153,1.293c0.1,0.414,0.153,0.848,0.153,1.293v1.293
			c0,0.445-0.053,0.879-0.153,1.293c0.1,0.414,0.153,0.848,0.153,1.293v1.293c0,0.445-0.053,0.879-0.153,1.293
			c0.1,0.414,0.153,0.848,0.153,1.293v1.293c0,0.445-0.053,0.879-0.153,1.293c0.1,0.414,0.153,0.848,0.153,1.293v1.293
			c0,0.445-0.053,0.879-0.153,1.293c0.1,0.414,0.153,0.848,0.153,1.293v1.293c0,0.445-0.053,0.879-0.153,1.293
			c0.1,0.414,0.153,0.848,0.153,1.293v1.293c0,0.445-0.053,0.879-0.153,1.293c0.1,0.414,0.153,0.848,0.153,1.293v1.293
			c0,0.445-0.053,0.879-0.153,1.293c0.1,0.414,0.153,0.848,0.153,1.293v1.293c0,0.445-0.053,0.879-0.153,1.293
			c0.1,0.414,0.153,0.848,0.153,1.293v1.293c0,0.445-0.053,0.879-0.153,1.293c0.1,0.414,0.153,0.848,0.153,1.293v1.293
			c0,0.445-0.053,0.879-0.153,1.293c0.1,0.414,0.153,0.848,0.153,1.293v1.293c0,0.445-0.053,0.879-0.153,1.293
			c0.1,0.414,0.153,0.848,0.153,1.293v1.293c0,0.445-0.053,0.879-0.153,1.293c0.1,0.414,0.153,0.848,0.153,1.293v1.293
			c0,0.445-0.053,0.879-0.153,1.293c0.1,0.414,0.153,0.848,0.153,1.293v1.293c0,0.445-0.053,0.879-0.153,1.293
			c0.1,0.414,0.153,0.848,0.153,1.293v1.293c0,0.445-0.053,0.879-0.153,1.293c0.1,0.414,0.153,0.848,0.153,1.293v1.293
			c0,0.445-0.053,0.879-0.153,1.293c0.1,0.414,0.153,0.848,0.153,1.293v1.293c0,0.445-0.053,0.879-0.153,1.293
			c0.1,0.414,0.153,0.848,0.153,1.293v1.293c0,0.445-0.053,0.879-0.153,1.293c0.1,0.414,0.153,0.848,0.153,1.293v1.293
			c0,0.445-0.053,0.879-0.153,1.293c0.1,0.414,0.153,0.848,0.153,1.293v1.293c0,0.445-0.053,0.879-0.153,1.293
			c0.1,0.414,0.153,0.848,0.153,1.293v1.293c0,0.445-0.053,0.879-0.153,1.293c0.1,0.414,0.153,0.848,0.153,1.293v1.293
			c0,0.445-0.053,0.879-0.153,1.293c0.1,0.414,0.153,0.848,0.153,1.293v1.293c0,0.445-0.053,0.879-0.153,1.293
			c0.1,0.414,0.153,0.848,0.153,1.293v1.293c0,0.445-0.053,0.879-0.153,1.293c0.1,0.414,0.153,0.848,0.153,1.293v1.293
			c0,0.445-0.053,0.879-0.153,1.293c0.1,0.414,0.153,0.848,0.153,1.293v1.293c0,0.445-0.053,0.879-0.153,1.293
			c0.1,0.414,0.153,0.848,0.153,1.293v1.293c0,0.445-0.053,0.878-0.153,1.293c0.1,0.415,0.153,0.848,0.153,1.293v1.293
			c0,0.445-0.053,0.878-0.153,1.293c0.1,0.415,0.153,0.848,0.153,1.293v1.293c0,0.445-0.053,0.878-0.153,1.293
			c0.1,0.415,0.153,0.848,0.153,1.293v1.293c0,0.445-0.053,0.878-0.153,1.293c0.1,0.415,0.153,0.848,0.153,1.293v1.293
			c0,0.445-0.053,0.878-0.153,1.293c0.1,0.415,0.153,0.848,0.153,1.293v1.293c0,0.445-0.053,0.878-0.153,1.293
			c0.1,0.415,0.153,0.848,0.153,1.293v1.293c0,0.445-0.053,0.878-0.153,1.293c0.1,0.415,0.153,0.848,0.153,1.293v1.293
			c0,0.445-0.053,0.878-0.153,1.293c0.1,0.415,0.153,0.848,0.153,1.293v1.293c0,0.445-0.053,0.878-0.153,1.293
			c0.1,0.415,0.153,0.848,0.153,1.293v1.293c0,0.445-0.053,0.878-0.153,1.293c0.1,0.415,0.153,0.848,0.153,1.293v1.293
			c0,0.445-0.053,0.878-0.153,1.293c0.1,0.415,0.153,0.848,0.153,1.293v1.293c0,0.445-0.053,0.878-0.153,1.293
			c0.1,0.415,0.153,0.848,0.153,1.293v1.293c0,0.445-0.053,0.878-0.153,1.293c0.03,0.122,0.055,0.246,0.076,0.371
			c0.359,0.016,0.709,0.066,1.047,0.147c0.414-0.1,0.848-0.153,1.293-0.153h1.293c0.445,0,0.879,0.053,1.293,0.153
			c0.414-0.1,0.848-0.153,1.293-0.153h1.293c0.445,0,0.879,0.053,1.293,0.153c0.414-0.1,0.848-0.153,1.293-0.153h1.293
			c0.445,0,0.879,0.053,1.293,0.153c0.414-0.1,0.848-0.153,1.293-0.153h1.293c0.445,0,0.879,0.053,1.293,0.153
			c0.414-0.1,0.848-0.153,1.293-0.153h1.293c0.445,0,0.879,0.053,1.293,0.153c0.414-0.1,0.848-0.153,1.293-0.153h1.293
			c0.445,0,0.879,0.053,1.293,0.153c0.414-0.1,0.848-0.153,1.293-0.153h1.293c0.445,0,0.879,0.053,1.293,0.153
			c0.414-0.1,0.848-0.153,1.293-0.153h1.293c0.445,0,0.879,0.053,1.293,0.153c0.414-0.1,0.848-0.153,1.293-0.153h1.293
			c0.445,0,0.879,0.053,1.293,0.153c0.414-0.1,0.848-0.153,1.293-0.153h1.293c0.445,0,0.879,0.053,1.293,0.153
			c0.414-0.1,0.848-0.153,1.293-0.153h1.293c0.445,0,0.879,0.053,1.293,0.153c0.414-0.1,0.848-0.153,1.293-0.153h1.293
			c0.445,0,0.879,0.053,1.293,0.153c0.414-0.1,0.848-0.153,1.293-0.153h1.293c0.445,0,0.879,0.053,1.293,0.153
			c0.414-0.1,0.848-0.153,1.293-0.153h1.293c0.445,0,0.879,0.053,1.293,0.153c0.414-0.1,0.848-0.153,1.293-0.153h1.293
			c0.445,0,0.879,0.053,1.293,0.153c0.414-0.1,0.848-0.153,1.293-0.153h1.293c0.445,0,0.879,0.053,1.293,0.153
			c0.414-0.1,0.848-0.153,1.293-0.153h1.293c0.445,0,0.879,0.053,1.293,0.153c0.414-0.1,0.848-0.153,1.293-0.153h1.293
			c0.445,0,0.879,0.053,1.293,0.153c0.414-0.1,0.848-0.153,1.293-0.153h1.293c0.445,0,0.879,0.053,1.293,0.153
			c0.414-0.1,0.848-0.153,1.293-0.153h1.293c0.445,0,0.879,0.053,1.293,0.153c0.414-0.1,0.848-0.153,1.293-0.153h1.293
			c0.445,0,0.879,0.053,1.293,0.153c0.414-0.1,0.848-0.153,1.293-0.153h1.293c0.445,0,0.879,0.053,1.293,0.153
			c0.414-0.1,0.848-0.153,1.293-0.153h1.293c0.445,0,0.879,0.053,1.293,0.153c0.414-0.1,0.848-0.153,1.293-0.153h1.293
			c0.445,0,0.879,0.053,1.293,0.153c0.414-0.1,0.848-0.153,1.293-0.153h1.293c0.445,0,0.879,0.053,1.293,0.153
			c0.414-0.1,0.848-0.153,1.293-0.153h1.293c0.445,0,0.879,0.053,1.293,0.153c0.414-0.1,0.848-0.153,1.293-0.153h1.293
			c0.445,0,0.879,0.053,1.293,0.153c0.414-0.1,0.848-0.153,1.293-0.153h1.293c0.445,0,0.879,0.053,1.293,0.153
			c0.414-0.1,0.848-0.153,1.293-0.153h1.293c0.445,0,0.879,0.053,1.293,0.153c0.414-0.1,0.848-0.153,1.293-0.153h1.293
			c0.445,0,0.879,0.053,1.293,0.153c0.414-0.1,0.848-0.153,1.293-0.153h1.293c0.445,0,0.879,0.053,1.293,0.153
			c0.414-0.1,0.848-0.153,1.293-0.153h1.293c0.445,0,0.879,0.053,1.293,0.153c0.414-0.1,0.848-0.153,1.293-0.153h1.293
			c0.445,0,0.879,0.053,1.293,0.153c0.414-0.1,0.848-0.153,1.293-0.153h1.293c0.445,0,0.879,0.053,1.293,0.153
			c0.414-0.1,0.848-0.153,1.293-0.153h1.293c0.445,0,0.879,0.053,1.293,0.153c0.414-0.1,0.848-0.153,1.293-0.153h1.293
			c0.445,0,0.879,0.053,1.293,0.153c0.414-0.1,0.848-0.153,1.293-0.153h1.293c0.445,0,0.879,0.053,1.293,0.153
			c0.414-0.1,0.848-0.153,1.293-0.153h1.293c0.445,0,0.879,0.053,1.293,0.153c0.414-0.1,0.848-0.153,1.293-0.153h1.293
			c0.445,0,0.878,0.053,1.293,0.153c0.415-0.1,0.848-0.153,1.293-0.153h1.293c0.445,0,0.878,0.053,1.293,0.153
			c0.415-0.1,0.848-0.153,1.293-0.153h1.293c0.445,0,0.878,0.053,1.293,0.153c0.415-0.1,0.848-0.153,1.293-0.153h1.293
			c0.445,0,0.878,0.053,1.293,0.153c0.415-0.1,0.848-0.153,1.293-0.153h1.293c0.445,0,0.878,0.053,1.293,0.153
			c0.415-0.1,0.848-0.153,1.293-0.153h1.293c0.445,0,0.878,0.053,1.293,0.153c0.415-0.1,0.848-0.153,1.293-0.153h1.293
			c0.445,0,0.878,0.053,1.293,0.153c0.415-0.1,0.848-0.153,1.293-0.153h1.293c0.445,0,0.878,0.053,1.293,0.153
			c0.415-0.1,0.848-0.153,1.293-0.153h1.293c0.445,0,0.878,0.053,1.293,0.153c0.415-0.1,0.848-0.153,1.293-0.153h1.293
			c0.445,0,0.878,0.053,1.293,0.153c0.415-0.1,0.848-0.153,1.293-0.153h1.293c0.445,0,0.878,0.053,1.293,0.153
			C206.952,214.196,207.385,214.143,207.829,214.143z"/>
		<polygon style="fill:#FFE100;" points="114.825,214.122 114.825,324.452 324.452,324.452 324.452,114.825 214.122,114.825 
			214.122,214.122 		"/>
	</g>
	<polygon style="fill:#FFA800;" points="307.902,324.452 324.452,324.452 324.452,114.825 307.902,114.825 	"/>
	<g>
		<path style="fill:#FFE100;" d="M285.838,92.737c-1.43,0-2.835-0.559-3.887-1.61l-44.132-44.132
			c-1.572-1.572-2.042-3.935-1.191-5.988c0.85-2.053,2.854-3.392,5.077-3.392c27.231,0,49.409,22.043,49.625,49.224
			c0.01,0.133,0.014,0.268,0.014,0.403c0,3.013-2.424,5.459-5.428,5.495C285.889,92.737,285.864,92.737,285.838,92.737z
			 M259.125,52.76l17.062,17.061C272.464,62.483,266.464,56.483,259.125,52.76z"/>
		<path style="fill:#FFE100;" d="M285.834,92.737c-0.834,0-1.675-0.189-2.456-0.58l-11.033-5.516
			c-2.714-1.357-3.814-4.658-2.457-7.372c1.357-2.715,4.656-3.815,7.372-2.457l7.49,3.745l8.232-8.233
			c2.146-2.146,5.625-2.146,7.771,0c2.146,2.146,2.146,5.625,0,7.771l-11.033,11.033C288.667,92.183,287.261,92.737,285.834,92.737z
			"/>
		<path style="fill:#FFE100;" d="M247.226,59.64c-2.016,0-3.956-1.113-4.919-3.039l-5.516-11.033
			c-1.058-2.115-0.643-4.671,1.029-6.343l11.033-11.033c2.146-2.146,5.625-2.146,7.771,0c2.146,2.146,2.146,5.625,0,7.771
			l-8.232,8.233l3.745,7.491c1.358,2.715,0.257,6.015-2.457,7.372C248.89,59.453,248.051,59.64,247.226,59.64z"/>
	</g>
	<path d="M214.122,219.617h-0.173c-0.445,0-0.878-0.053-1.293-0.153c-0.415,0.1-0.848,0.153-1.293,0.153h-1.293
		c-0.445,0-0.878-0.053-1.293-0.153c-0.415,0.1-0.848,0.153-1.293,0.153h-1.293c-0.445,0-0.878-0.053-1.293-0.153
		c-0.415,0.1-0.848,0.153-1.293,0.153h-1.293c-0.445,0-0.878-0.053-1.293-0.153c-0.415,0.1-0.848,0.153-1.293,0.153h-1.293
		c-0.445,0-0.878-0.053-1.293-0.153c-0.415,0.1-0.848,0.153-1.293,0.153h-1.293c-0.445,0-0.878-0.053-1.293-0.153
		c-0.415,0.1-0.848,0.153-1.293,0.153h-1.293c-0.445,0-0.878-0.053-1.293-0.153c-0.415,0.1-0.848,0.153-1.293,0.153h-1.293
		c-0.445,0-0.878-0.053-1.293-0.153c-0.415,0.1-0.848,0.153-1.293,0.153h-1.293c-0.445,0-0.878-0.053-1.293-0.153
		c-0.415,0.1-0.848,0.153-1.293,0.153h-1.293c-0.445,0-0.878-0.053-1.293-0.153c-0.415,0.1-0.848,0.153-1.293,0.153h-1.293
		c-0.445,0-0.878-0.053-1.293-0.153c-0.415,0.1-0.848,0.153-1.293,0.153h-1.293c-0.445,0-0.878-0.053-1.293-0.153
		c-0.415,0.1-0.848,0.153-1.293,0.153h-1.293c-0.445,0-0.878-0.053-1.293-0.153c-0.415,0.1-0.848,0.153-1.293,0.153h-1.293
		c-0.445,0-0.879-0.053-1.293-0.153c-0.414,0.1-0.848,0.153-1.293,0.153h-1.293c-0.445,0-0.879-0.053-1.293-0.153
		c-0.414,0.1-0.848,0.153-1.293,0.153h-1.293c-0.445,0-0.879-0.053-1.293-0.153c-0.414,0.1-0.848,0.153-1.293,0.153h-1.293
		c-0.445,0-0.879-0.053-1.293-0.153c-0.414,0.1-0.848,0.153-1.293,0.153h-1.293c-0.445,0-0.879-0.053-1.293-0.153
		c-0.414,0.1-0.848,0.153-1.293,0.153h-1.293c-0.445,0-0.879-0.053-1.293-0.153c-0.414,0.1-0.848,0.153-1.293,0.153h-1.293
		c-0.445,0-0.879-0.053-1.293-0.153c-0.414,0.1-0.848,0.153-1.293,0.153h-1.293c-0.445,0-0.879-0.053-1.293-0.153
		c-0.414,0.1-0.848,0.153-1.293,0.153h-1.293c-0.445,0-0.879-0.053-1.293-0.153c-0.414,0.1-0.848,0.153-1.293,0.153h-1.293
		c-0.445,0-0.879-0.053-1.293-0.153c-0.414,0.1-0.848,0.153-1.293,0.153h-1.293c-0.445,0-0.879-0.053-1.293-0.153
		c-0.414,0.1-0.848,0.153-1.293,0.153h-1.293c-0.445,0-0.879-0.053-1.293-0.153c-0.414,0.1-0.848,0.153-1.293,0.153h-1.293
		c-0.445,0-0.879-0.053-1.293-0.153c-0.414,0.1-0.848,0.153-1.293,0.153h-1.293c-0.445,0-0.879-0.053-1.293-0.153
		c-0.414,0.1-0.848,0.153-1.293,0.153h-1.293c-0.445,0-0.879-0.053-1.293-0.153c-0.414,0.1-0.848,0.153-1.293,0.153h-1.293
		c-0.445,0-0.879-0.053-1.293-0.153c-0.414,0.1-0.848,0.153-1.293,0.153h-1.293c-0.445,0-0.879-0.053-1.293-0.153
		c-0.414,0.1-0.848,0.153-1.293,0.153h-1.293c-0.445,0-0.879-0.053-1.293-0.153c-0.414,0.1-0.848,0.153-1.293,0.153h-1.293
		c-0.445,0-0.879-0.053-1.293-0.153c-0.414,0.1-0.848,0.153-1.293,0.153h-1.293c-0.445,0-0.879-0.053-1.293-0.153
		c-0.414,0.1-0.848,0.153-1.293,0.153h-1.293c-0.445,0-0.879-0.053-1.293-0.153c-0.414,0.1-0.848,0.153-1.293,0.153h-1.293
		c-0.445,0-0.879-0.053-1.293-0.153c-0.414,0.1-0.848,0.153-1.293,0.153h-1.293c-0.445,0-0.879-0.053-1.293-0.153
		c-0.414,0.1-0.848,0.153-1.293,0.153h-1.293c-0.445,0-0.879-0.053-1.293-0.153c-0.414,0.1-0.848,0.153-1.293,0.153h-1.293
		c-0.445,0-0.879-0.053-1.293-0.153c-0.414,0.1-0.848,0.153-1.293,0.153h-1.293c-0.445,0-0.879-0.053-1.293-0.153
		c-0.414,0.1-0.848,0.153-1.293,0.153h-1.293c-0.445,0-0.879-0.053-1.293-0.153c-0.414,0.1-0.848,0.153-1.293,0.153h-1.293
		c-0.445,0-0.879-0.053-1.293-0.153c-0.414,0.1-0.848,0.153-1.293,0.153h-1.293c-0.445,0-0.879-0.053-1.293-0.153
		c-0.414,0.1-0.848,0.153-1.293,0.153H51.04c-0.445,0-0.879-0.053-1.293-0.153c-0.414,0.1-0.848,0.153-1.293,0.153h-1.293
		c-0.445,0-0.879-0.053-1.293-0.153c-0.414,0.1-0.848,0.153-1.293,0.153h-1.293c-0.445,0-0.879-0.053-1.293-0.153
		c-0.414,0.1-0.848,0.153-1.293,0.153h-1.293c-0.445,0-0.879-0.053-1.293-0.153c-0.414,0.1-0.848,0.153-1.293,0.153h-1.293
		c-0.445,0-0.879-0.053-1.293-0.153c-0.414,0.1-0.848,0.153-1.293,0.153h-1.293c-0.445,0-0.879-0.053-1.293-0.153
		c-0.414,0.1-0.848,0.153-1.293,0.153h-1.293c-0.445,0-0.879-0.053-1.293-0.153c-0.414,0.1-0.848,0.153-1.293,0.153h-1.293
		c-0.445,0-0.879-0.053-1.293-0.153c-0.414,0.1-0.848,0.153-1.293,0.153H20.01c-0.445,0-0.879-0.053-1.293-0.153
		c-0.414,0.1-0.848,0.153-1.293,0.153h-1.293c-0.445,0-0.879-0.053-1.293-0.153c-0.414,0.1-0.848,0.153-1.293,0.153h-1.293
		c-0.445,0-0.879-0.053-1.293-0.153c-0.414,0.1-0.848,0.153-1.293,0.153H8.374c-0.445,0-0.879-0.053-1.293-0.153
		c-0.414,0.1-0.848,0.153-1.293,0.153H4.495c-3.035,0-5.495-2.46-5.495-5.495v-0.688c0-0.445,0.053-0.878,0.153-1.293
		c-0.1-0.415-0.153-0.848-0.153-1.293v-1.293c0-0.445,0.053-0.878,0.153-1.293c-0.1-0.415-0.153-0.848-0.153-1.293v-1.293
		c0-0.445,0.053-0.878,0.153-1.293C-0.947,203.968-1,203.535-1,203.09v-1.293c0-0.445,0.053-0.878,0.153-1.293
		c-0.1-0.415-0.153-0.848-0.153-1.293v-1.293c0-0.445,0.053-0.878,0.153-1.293c-0.1-0.415-0.153-0.848-0.153-1.293v-1.293
		c0-0.445,0.053-0.878,0.153-1.293c-0.1-0.415-0.153-0.848-0.153-1.293v-1.293c0-0.445,0.053-0.878,0.153-1.293
		C-0.947,188.453-1,188.02-1,187.575v-1.293c0-0.445,0.053-0.878,0.153-1.293c-0.1-0.415-0.153-0.848-0.153-1.293v-1.293
		c0-0.445,0.053-0.878,0.153-1.293c-0.1-0.415-0.153-0.848-0.153-1.293v-1.293c0-0.445,0.053-0.878,0.153-1.293
		c-0.1-0.415-0.153-0.848-0.153-1.293v-1.293c0-0.445,0.053-0.878,0.153-1.293C-0.947,172.938-1,172.505-1,172.06v-1.293
		c0-0.445,0.053-0.878,0.153-1.293c-0.1-0.415-0.153-0.848-0.153-1.293v-1.293c0-0.445,0.053-0.878,0.153-1.293
		C-0.947,165.18-1,164.747-1,164.302v-1.293c0-0.445,0.053-0.879,0.153-1.293c-0.1-0.414-0.153-0.848-0.153-1.293v-1.293
		c0-0.445,0.053-0.879,0.153-1.293C-0.947,157.423-1,156.99-1,156.545v-1.293c0-0.445,0.053-0.879,0.153-1.293
		c-0.1-0.414-0.153-0.848-0.153-1.293v-1.293c0-0.445,0.053-0.879,0.153-1.293c-0.1-0.414-0.153-0.848-0.153-1.293v-1.293
		c0-0.445,0.053-0.879,0.153-1.293c-0.1-0.414-0.153-0.848-0.153-1.293v-1.293c0-0.445,0.053-0.879,0.153-1.293
		C-0.947,141.908-1,141.475-1,141.03v-1.293c0-0.445,0.053-0.879,0.153-1.293c-0.1-0.414-0.153-0.848-0.153-1.293v-1.293
		c0-0.445,0.053-0.879,0.153-1.293c-0.1-0.414-0.153-0.848-0.153-1.293v-1.293c0-0.445,0.053-0.879,0.153-1.293
		c-0.1-0.414-0.153-0.848-0.153-1.293V128.1c0-0.445,0.053-0.879,0.153-1.293C-0.947,126.393-1,125.96-1,125.514v-1.293
		c0-0.445,0.053-0.879,0.153-1.293c-0.1-0.414-0.153-0.848-0.153-1.293v-1.293c0-0.445,0.053-0.879,0.153-1.293
		c-0.1-0.414-0.153-0.848-0.153-1.293v-1.293c0-0.445,0.053-0.879,0.153-1.293c-0.1-0.414-0.153-0.848-0.153-1.293v-1.293
		c0-0.445,0.053-0.879,0.153-1.293c-0.1-0.414-0.153-0.848-0.153-1.293v-1.293c0-0.445,0.053-0.879,0.153-1.293
		C-0.947,106.999-1,106.566-1,106.12v-1.293c0-0.445,0.053-0.879,0.153-1.293C-0.947,103.12-1,102.687-1,102.242v-1.293
		c0-0.445,0.053-0.879,0.153-1.293C-0.947,99.241-1,98.808-1,98.363V97.07c0-0.445,0.053-0.879,0.153-1.293
		C-0.947,95.363-1,94.93-1,94.484v-1.293c0-0.445,0.053-0.879,0.153-1.293C-0.947,91.484-1,91.051-1,90.605v-1.293
		c0-0.445,0.053-0.879,0.153-1.293C-0.947,87.605-1,87.172-1,86.727v-1.293c0-0.445,0.053-0.879,0.153-1.293
		C-0.947,83.726-1,83.293-1,82.848v-1.293c0-0.445,0.053-0.879,0.153-1.293C-0.947,79.848-1,79.414-1,78.969v-1.293
		c0-0.445,0.053-0.879,0.153-1.293C-0.947,75.969-1,75.536-1,75.09v-1.293c0-0.445,0.053-0.879,0.153-1.293
		C-0.947,72.09-1,71.657-1,71.211v-1.293c0-0.445,0.053-0.879,0.153-1.293C-0.947,68.211-1,67.778-1,67.333V66.04
		c0-0.445,0.053-0.879,0.153-1.293C-0.947,64.332-1,63.899-1,63.453V62.16c0-0.445,0.053-0.879,0.153-1.293
		C-0.947,60.453-1,60.02-1,59.574v-1.293c0-0.445,0.053-0.879,0.153-1.293C-0.947,56.574-1,56.141-1,55.696v-1.293
		c0-0.445,0.053-0.879,0.153-1.293C-0.947,52.695-1,52.262-1,51.817v-1.293c0-0.445,0.053-0.879,0.153-1.293
		C-0.947,48.817-1,48.383-1,47.938v-1.293c0-0.445,0.053-0.879,0.153-1.293C-0.947,44.938-1,44.505-1,44.059v-1.293
		c0-0.445,0.053-0.879,0.153-1.293C-0.947,41.059-1,40.626-1,40.18v-1.293c0-0.445,0.053-0.879,0.153-1.293
		C-0.947,37.18-1,36.747-1,36.302v-1.293c0-0.445,0.053-0.879,0.153-1.293C-0.947,33.301-1,32.868-1,32.423V31.13
		c0-0.445,0.053-0.879,0.153-1.293C-0.947,29.423-1,28.99-1,28.544v-1.293c0-0.445,0.053-0.879,0.153-1.293
		C-0.947,25.544-1,25.111-1,24.665v-1.293c0-0.445,0.053-0.879,0.153-1.293C-0.947,21.665-1,21.232-1,20.787v-1.293
		c0-0.445,0.053-0.879,0.153-1.293C-0.947,17.786-1,17.353-1,16.908v-1.293c0-0.445,0.053-0.879,0.153-1.293
		C-0.947,13.907-1,13.474-1,13.029v-1.293c0-0.445,0.053-0.879,0.153-1.293C-0.947,10.029-1,9.596-1,9.15V7.857
		c0-0.445,0.053-0.879,0.153-1.293C-0.947,6.15-1,5.717-1,5.271V4.495C-1,1.46,1.46-1,4.495-1h0.517C5.457-1,5.89-0.947,6.304-0.847
		C6.719-0.947,7.152-1,7.597-1H8.89c0.445,0,0.879,0.053,1.293,0.153C10.598-0.947,11.031-1,11.476-1h1.293
		c0.445,0,0.879,0.053,1.293,0.153C14.476-0.947,14.909-1,15.355-1h1.293c0.445,0,0.879,0.053,1.293,0.153
		C18.355-0.947,18.788-1,19.234-1h1.293c0.445,0,0.879,0.053,1.293,0.153C22.234-0.947,22.667-1,23.112-1h1.293
		c0.445,0,0.879,0.053,1.293,0.153C26.113-0.947,26.546-1,26.991-1h1.293c0.445,0,0.879,0.053,1.293,0.153
		C29.992-0.947,30.425-1,30.87-1h1.293c0.445,0,0.879,0.053,1.293,0.153C33.87-0.947,34.303-1,34.749-1h1.293
		c0.445,0,0.879,0.053,1.293,0.153C37.749-0.947,38.182-1,38.628-1h1.293c0.445,0,0.879,0.053,1.293,0.153
		C41.628-0.947,42.061-1,42.506-1h1.293c0.445,0,0.879,0.053,1.293,0.153C45.507-0.947,45.94-1,46.385-1h1.293
		c0.445,0,0.879,0.053,1.293,0.153C49.385-0.947,49.819-1,50.264-1h1.293c0.445,0,0.879,0.053,1.293,0.153
		C53.264-0.947,53.697-1,54.143-1h1.293c0.445,0,0.879,0.053,1.293,0.153C57.143-0.947,57.576-1,58.022-1h1.293
		c0.445,0,0.879,0.053,1.293,0.153C61.022-0.947,61.455-1,61.9-1h1.293c0.445,0,0.879,0.053,1.293,0.153
		C64.901-0.947,65.334-1,65.779-1h1.293c0.445,0,0.879,0.053,1.293,0.153C68.779-0.947,69.213-1,69.658-1h1.293
		c0.445,0,0.879,0.053,1.293,0.153C72.658-0.947,73.091-1,73.537-1h1.293c0.445,0,0.879,0.053,1.293,0.153
		C76.537-0.947,76.97-1,77.416-1h1.293c0.445,0,0.879,0.053,1.293,0.153C80.416-0.947,80.849-1,81.294-1h1.293
		c0.445,0,0.879,0.053,1.293,0.153C84.295-0.947,84.728-1,85.173-1h1.293c0.445,0,0.879,0.053,1.293,0.153
		C88.173-0.947,88.606-1,89.052-1h1.293c0.445,0,0.879,0.053,1.293,0.153C92.052-0.947,92.485-1,92.931-1h1.293
		c0.445,0,0.879,0.053,1.293,0.153C95.931-0.947,96.364-1,96.809-1h1.293c0.445,0,0.879,0.053,1.293,0.153
		C99.81-0.947,100.243-1,100.688-1h1.293c0.445,0,0.879,0.053,1.293,0.153c0.414-0.1,0.848-0.153,1.293-0.153h1.293
		c0.445,0,0.879,0.053,1.293,0.153C107.567-0.947,108-1,108.446-1h1.293c0.445,0,0.879,0.053,1.293,0.153
		c0.414-0.1,0.848-0.153,1.293-0.153h1.293c0.445,0,0.879,0.053,1.293,0.153c0.414-0.1,0.848-0.153,1.293-0.153h1.293
		c0.445,0,0.879,0.053,1.293,0.153c0.414-0.1,0.848-0.153,1.293-0.153h1.293c0.445,0,0.879,0.053,1.293,0.153
		c0.414-0.1,0.848-0.153,1.293-0.153h1.293c0.445,0,0.879,0.053,1.293,0.153C126.961-0.947,127.394-1,127.84-1h1.293
		c0.445,0,0.879,0.053,1.293,0.153C130.84-0.947,131.273-1,131.719-1h1.293c0.445,0,0.879,0.053,1.293,0.153
		c0.414-0.1,0.848-0.153,1.293-0.153h1.293c0.445,0,0.879,0.053,1.293,0.153c0.414-0.1,0.848-0.153,1.293-0.153h1.293
		c0.445,0,0.879,0.053,1.293,0.153C142.476-0.947,142.91-1,143.355-1h1.293c0.445,0,0.879,0.053,1.293,0.153
		c0.414-0.1,0.848-0.153,1.293-0.153h1.293c0.445,0,0.879,0.053,1.293,0.153c0.414-0.1,0.848-0.153,1.293-0.153h1.293
		c0.445,0,0.879,0.053,1.293,0.153c0.414-0.1,0.848-0.153,1.293-0.153h1.293c0.445,0,0.879,0.053,1.293,0.153
		C157.992-0.947,158.425-1,158.87-1h1.293c0.445,0,0.879,0.053,1.293,0.153C161.87-0.947,162.303-1,162.749-1h1.293
		c0.445,0,0.879,0.053,1.293,0.153C165.75-0.947,166.182-1,166.628-1h1.293c0.445,0,0.878,0.053,1.293,0.153
		c0.415-0.1,0.848-0.153,1.293-0.153h1.293c0.445,0,0.878,0.053,1.293,0.153c0.415-0.1,0.848-0.153,1.293-0.153h1.293
		c0.445,0,0.878,0.053,1.293,0.153C177.387-0.947,177.82-1,178.265-1h1.293c0.445,0,0.878,0.053,1.293,0.153
		c0.415-0.1,0.848-0.153,1.293-0.153h1.293c0.445,0,0.878,0.053,1.293,0.153c0.415-0.1,0.848-0.153,1.293-0.153h1.293
		c0.445,0,0.878,0.053,1.293,0.153c0.415-0.1,0.848-0.153,1.293-0.153h1.293c0.445,0,0.878,0.053,1.293,0.153
		C192.902-0.947,193.335-1,193.78-1h1.293c0.445,0,0.878,0.053,1.293,0.153c0.415-0.1,0.848-0.153,1.293-0.153h1.293
		c0.445,0,0.878,0.053,1.293,0.153c0.415-0.1,0.848-0.153,1.293-0.153h1.293c0.445,0,0.878,0.053,1.293,0.153
		c0.415-0.1,0.848-0.153,1.293-0.153h1.293c0.445,0,0.878,0.053,1.293,0.153C208.417-0.947,208.85-1,209.295-1h1.293
		c0.445,0,0.878,0.053,1.293,0.153c0.415-0.1,0.848-0.153,1.293-0.153h0.948c3.035,0,5.495,2.46,5.495,5.495V4.84
		c0,0.445-0.053,0.879-0.153,1.293c0.1,0.414,0.153,0.848,0.153,1.293v1.293c0,0.445-0.053,0.879-0.153,1.293
		c0.1,0.414,0.153,0.848,0.153,1.293v1.293c0,0.445-0.053,0.879-0.153,1.293c0.1,0.414,0.153,0.848,0.153,1.293v1.293
		c0,0.445-0.053,0.879-0.153,1.293c0.1,0.414,0.153,0.848,0.153,1.293v1.293c0,0.445-0.053,0.879-0.153,1.293
		c0.1,0.414,0.153,0.848,0.153,1.293v1.293c0,0.445-0.053,0.879-0.153,1.293c0.1,0.414,0.153,0.848,0.153,1.293v1.293
		c0,0.445-0.053,0.879-0.153,1.293c0.1,0.414,0.153,0.848,0.153,1.293v1.293c0,0.445-0.053,0.879-0.153,1.293
		c0.1,0.414,0.153,0.848,0.153,1.293v1.293c0,0.445-0.053,0.879-0.153,1.293c0.1,0.414,0.153,0.848,0.153,1.293v1.293
		c0,0.445-0.053,0.879-0.153,1.293c0.1,0.414,0.153,0.848,0.153,1.293v1.293c0,0.445-0.053,0.879-0.153,1.293
		c0.1,0.414,0.153,0.848,0.153,1.293v1.293c0,0.445-0.053,0.879-0.153,1.293c0.1,0.414,0.153,0.848,0.153,1.293v1.293
		c0,0.445-0.053,0.879-0.153,1.293c0.1,0.414,0.153,0.848,0.153,1.293v1.293c0,0.445-0.053,0.879-0.153,1.293
		c0.1,0.414,0.153,0.848,0.153,1.293v1.293c0,0.445-0.053,0.879-0.153,1.293c0.1,0.414,0.153,0.848,0.153,1.293v1.293
		c0,0.445-0.053,0.879-0.153,1.293c0.1,0.414,0.153,0.848,0.153,1.293V66.9c0,0.445-0.053,0.879-0.153,1.293
		c0.1,0.414,0.153,0.848,0.153,1.293v1.293c0,0.445-0.053,0.879-0.153,1.293c0.1,0.414,0.153,0.848,0.153,1.293v1.293
		c0,0.445-0.053,0.879-0.153,1.293c0.1,0.414,0.153,0.848,0.153,1.293v1.293c0,0.445-0.053,0.879-0.153,1.293
		c0.1,0.414,0.153,0.848,0.153,1.293v1.293c0,0.445-0.053,0.879-0.153,1.293c0.1,0.414,0.153,0.848,0.153,1.293v1.293
		c0,0.445-0.053,0.879-0.153,1.293c0.1,0.414,0.153,0.848,0.153,1.293v1.293c0,0.445-0.053,0.879-0.153,1.293
		c0.1,0.414,0.153,0.848,0.153,1.293v1.293c0,0.445-0.053,0.879-0.153,1.293c0.1,0.414,0.153,0.848,0.153,1.293v1.293
		c0,0.445-0.053,0.879-0.153,1.293c0.1,0.414,0.153,0.848,0.153,1.293v1.293c0,0.445-0.053,0.879-0.153,1.293
		c0.1,0.414,0.153,0.848,0.153,1.293v1.293c0,0.445-0.053,0.879-0.153,1.293c0.1,0.414,0.153,0.848,0.153,1.293v1.293
		c0,0.445-0.053,0.879-0.153,1.293c0.1,0.415,0.153,0.848,0.153,1.293v1.293c0,0.445-0.053,0.879-0.153,1.293
		c0.1,0.414,0.153,0.848,0.153,1.293v1.293c0,0.445-0.053,0.879-0.153,1.293c0.1,0.414,0.153,0.848,0.153,1.293v1.293
		c0,0.445-0.053,0.879-0.153,1.293c0.1,0.414,0.153,0.848,0.153,1.293v1.293c0,0.445-0.053,0.879-0.153,1.293
		c0.1,0.414,0.153,0.848,0.153,1.293v1.293c0,0.445-0.053,0.879-0.153,1.293c0.1,0.414,0.153,0.848,0.153,1.293v1.293
		c0,0.445-0.053,0.879-0.153,1.293c0.1,0.414,0.153,0.848,0.153,1.293v1.293c0,0.445-0.053,0.879-0.153,1.293
		c0.1,0.414,0.153,0.848,0.153,1.293v1.293c0,0.445-0.053,0.879-0.153,1.293c0.1,0.414,0.153,0.848,0.153,1.293v1.293
		c0,0.445-0.053,0.879-0.153,1.293c0.1,0.414,0.153,0.848,0.153,1.293v1.293c0,0.445-0.053,0.879-0.153,1.293
		c0.1,0.414,0.153,0.848,0.153,1.293v1.293c0,0.445-0.053,0.879-0.153,1.293c0.1,0.414,0.153,0.848,0.153,1.293v1.293
		c0,0.445-0.053,0.879-0.153,1.293c0.1,0.414,0.153,0.848,0.153,1.293v1.293c0,0.445-0.053,0.879-0.153,1.293
		c0.1,0.414,0.153,0.848,0.153,1.293v1.293c0,0.445-0.053,0.879-0.153,1.293c0.1,0.415,0.153,0.848,0.153,1.293v1.293
		c0,0.445-0.053,0.878-0.153,1.293c0.1,0.415,0.153,0.848,0.153,1.293v1.293c0,0.445-0.053,0.878-0.153,1.293
		c0.1,0.415,0.153,0.848,0.153,1.293v1.293c0,0.445-0.053,0.878-0.153,1.293c0.1,0.415,0.153,0.848,0.153,1.293v1.293
		c0,0.445-0.053,0.878-0.153,1.293c0.1,0.415,0.153,0.848,0.153,1.293v1.293c0,0.445-0.053,0.878-0.153,1.293
		c0.1,0.415,0.153,0.848,0.153,1.293v1.293c0,0.445-0.053,0.878-0.153,1.293c0.1,0.415,0.153,0.848,0.153,1.293v1.293
		c0,0.445-0.053,0.878-0.153,1.293c0.1,0.415,0.153,0.848,0.153,1.293v1.293c0,0.445-0.053,0.878-0.153,1.293
		c0.1,0.415,0.153,0.848,0.153,1.293v1.293c0,0.445-0.053,0.878-0.153,1.293c0.1,0.415,0.153,0.848,0.153,1.293v1.293
		c0,0.445-0.053,0.878-0.153,1.293c0.1,0.415,0.153,0.848,0.153,1.293v1.293c0,0.445-0.053,0.878-0.153,1.293
		c0.1,0.415,0.153,0.848,0.153,1.293v1.293c0,0.445-0.053,0.878-0.153,1.293c0.1,0.415,0.153,0.848,0.153,1.293v1.12
		C219.617,217.157,217.157,219.617,214.122,219.617z M202.313,208.627h1.293c0.445,0,0.878,0.053,1.293,0.153
		c0.415-0.1,0.848-0.153,1.293-0.153h1.293c0.396,0,0.782,0.041,1.155,0.122c0.021-0.314,0.069-0.621,0.14-0.919
		c-0.1-0.415-0.153-0.848-0.153-1.293v-1.293c0-0.445,0.053-0.878,0.153-1.293c-0.1-0.415-0.153-0.848-0.153-1.293v-1.293
		c0-0.445,0.053-0.878,0.153-1.293c-0.1-0.415-0.153-0.848-0.153-1.293v-1.293c0-0.445,0.053-0.878,0.153-1.293
		c-0.1-0.415-0.153-0.848-0.153-1.293v-1.293c0-0.445,0.053-0.878,0.153-1.293c-0.1-0.415-0.153-0.848-0.153-1.293v-1.293
		c0-0.445,0.053-0.878,0.153-1.293c-0.1-0.415-0.153-0.848-0.153-1.293v-1.293c0-0.445,0.053-0.878,0.153-1.293
		c-0.1-0.415-0.153-0.848-0.153-1.293v-1.293c0-0.445,0.053-0.878,0.153-1.293c-0.1-0.415-0.153-0.848-0.153-1.293v-1.293
		c0-0.445,0.053-0.878,0.153-1.293c-0.1-0.415-0.153-0.848-0.153-1.293v-1.293c0-0.445,0.053-0.878,0.153-1.293
		c-0.1-0.415-0.153-0.848-0.153-1.293v-1.293c0-0.445,0.053-0.878,0.153-1.293c-0.1-0.415-0.153-0.848-0.153-1.293v-1.293
		c0-0.445,0.053-0.878,0.153-1.293c-0.1-0.414-0.153-0.848-0.153-1.293v-1.293c0-0.445,0.053-0.879,0.153-1.293
		c-0.1-0.414-0.153-0.848-0.153-1.293v-1.293c0-0.445,0.053-0.879,0.153-1.293c-0.1-0.414-0.153-0.848-0.153-1.293v-1.293
		c0-0.445,0.053-0.879,0.153-1.293c-0.1-0.414-0.153-0.848-0.153-1.293v-1.293c0-0.445,0.053-0.879,0.153-1.293
		c-0.1-0.414-0.153-0.848-0.153-1.293v-1.293c0-0.445,0.053-0.879,0.153-1.293c-0.1-0.414-0.153-0.848-0.153-1.293v-1.293
		c0-0.445,0.053-0.879,0.153-1.293c-0.1-0.414-0.153-0.848-0.153-1.293v-1.293c0-0.445,0.053-0.879,0.153-1.293
		c-0.1-0.414-0.153-0.848-0.153-1.293v-1.293c0-0.445,0.053-0.879,0.153-1.293c-0.1-0.414-0.153-0.848-0.153-1.293v-1.293
		c0-0.445,0.053-0.879,0.153-1.293c-0.1-0.414-0.153-0.848-0.153-1.293v-1.293c0-0.445,0.053-0.879,0.153-1.293
		c-0.1-0.414-0.153-0.848-0.153-1.293v-1.293c0-0.445,0.053-0.879,0.153-1.293c-0.1-0.414-0.153-0.848-0.153-1.293v-1.293
		c0-0.445,0.053-0.879,0.153-1.293c-0.1-0.414-0.153-0.848-0.153-1.293v-1.293c0-0.445,0.053-0.879,0.153-1.293
		c-0.1-0.414-0.153-0.848-0.153-1.293v-1.293c0-0.445,0.053-0.879,0.153-1.293c-0.1-0.414-0.153-0.848-0.153-1.293v-1.293
		c0-0.445,0.053-0.879,0.153-1.293c-0.1-0.414-0.153-0.848-0.153-1.293v-1.293c0-0.445,0.053-0.879,0.153-1.293
		c-0.1-0.415-0.153-0.848-0.153-1.293v-1.293c0-0.445,0.053-0.879,0.153-1.293c-0.1-0.414-0.153-0.848-0.153-1.293v-1.293
		c0-0.445,0.053-0.879,0.153-1.293c-0.1-0.414-0.153-0.848-0.153-1.293v-1.293c0-0.445,0.053-0.879,0.153-1.293
		c-0.1-0.414-0.153-0.848-0.153-1.293v-1.293c0-0.445,0.053-0.879,0.153-1.293c-0.1-0.414-0.153-0.848-0.153-1.293v-1.293
		c0-0.445,0.053-0.879,0.153-1.293c-0.1-0.414-0.153-0.848-0.153-1.293v-1.293c0-0.445,0.053-0.879,0.153-1.293
		c-0.1-0.414-0.153-0.848-0.153-1.293v-1.293c0-0.445,0.053-0.879,0.153-1.293c-0.1-0.414-0.153-0.848-0.153-1.293v-1.293
		c0-0.445,0.053-0.879,0.153-1.293c-0.1-0.414-0.153-0.848-0.153-1.293v-1.293c0-0.445,0.053-0.879,0.153-1.293
		c-0.1-0.414-0.153-0.848-0.153-1.293v-1.293c0-0.445,0.053-0.879,0.153-1.293c-0.1-0.414-0.153-0.848-0.153-1.293v-1.293
		c0-0.445,0.053-0.879,0.153-1.293c-0.1-0.414-0.153-0.848-0.153-1.293V57.85c0-0.445,0.053-0.879,0.153-1.293
		c-0.1-0.414-0.153-0.848-0.153-1.293v-1.293c0-0.445,0.053-0.879,0.153-1.293c-0.1-0.414-0.153-0.848-0.153-1.293v-1.293
		c0-0.445,0.053-0.879,0.153-1.293c-0.1-0.414-0.153-0.848-0.153-1.293v-1.293c0-0.445,0.053-0.879,0.153-1.293
		c-0.1-0.414-0.153-0.848-0.153-1.293v-1.293c0-0.445,0.053-0.879,0.153-1.293c-0.1-0.414-0.153-0.848-0.153-1.293v-1.293
		c0-0.445,0.053-0.879,0.153-1.293c-0.1-0.414-0.153-0.848-0.153-1.293v-1.293c0-0.445,0.053-0.879,0.153-1.293
		c-0.1-0.414-0.153-0.848-0.153-1.293v-1.293c0-0.445,0.053-0.879,0.153-1.293c-0.1-0.414-0.153-0.848-0.153-1.293V26.82
		c0-0.445,0.053-0.879,0.153-1.293c-0.1-0.414-0.153-0.848-0.153-1.293v-1.293c0-0.445,0.053-0.879,0.153-1.293
		c-0.1-0.414-0.153-0.848-0.153-1.293v-1.293c0-0.445,0.053-0.879,0.153-1.293c-0.1-0.414-0.153-0.848-0.153-1.293v-1.293
		c0-0.445,0.053-0.879,0.153-1.293c-0.1-0.414-0.153-0.848-0.153-1.293v-1.293c0-0.445,0.053-0.879,0.153-1.293
		c-0.003-0.015-0.007-0.03-0.011-0.046c-0.261-0.025-0.518-0.068-0.767-0.128c-0.415,0.1-0.848,0.153-1.293,0.153h-1.293
		c-0.445,0-0.878-0.053-1.293-0.153c-0.415,0.1-0.848,0.153-1.293,0.153h-1.293c-0.445,0-0.878-0.053-1.293-0.153
		c-0.415,0.1-0.848,0.153-1.293,0.153h-1.293c-0.445,0-0.878-0.053-1.293-0.153c-0.415,0.1-0.848,0.153-1.293,0.153h-1.293
		c-0.445,0-0.878-0.053-1.293-0.153c-0.415,0.1-0.848,0.153-1.293,0.153H189.9c-0.445,0-0.878-0.053-1.293-0.153
		c-0.415,0.1-0.848,0.153-1.293,0.153h-1.293c-0.445,0-0.878-0.053-1.293-0.153c-0.415,0.1-0.848,0.153-1.293,0.153h-1.293
		c-0.445,0-0.878-0.053-1.293-0.153c-0.415,0.1-0.848,0.153-1.293,0.153h-1.293c-0.445,0-0.878-0.053-1.293-0.153
		c-0.415,0.1-0.848,0.153-1.293,0.153h-1.293c-0.445,0-0.878-0.053-1.293-0.153c-0.415,0.1-0.848,0.153-1.293,0.153h-1.293
		c-0.445,0-0.878-0.053-1.293-0.153c-0.415,0.1-0.848,0.153-1.293,0.153h-1.293c-0.445,0-0.878-0.053-1.293-0.153
		c-0.414,0.1-0.848,0.153-1.293,0.153h-1.293c-0.445,0-0.879-0.053-1.293-0.153c-0.414,0.1-0.848,0.153-1.293,0.153h-1.293
		c-0.445,0-0.879-0.053-1.293-0.153c-0.414,0.1-0.848,0.153-1.293,0.153h-1.293c-0.445,0-0.879-0.053-1.293-0.153
		c-0.414,0.1-0.848,0.153-1.293,0.153h-1.293c-0.445,0-0.879-0.053-1.293-0.153c-0.414,0.1-0.848,0.153-1.293,0.153h-1.293
		c-0.445,0-0.879-0.053-1.293-0.153c-0.414,0.1-0.848,0.153-1.293,0.153h-1.293c-0.445,0-0.879-0.053-1.293-0.153
		c-0.414,0.1-0.848,0.153-1.293,0.153h-1.293c-0.445,0-0.879-0.053-1.293-0.153c-0.414,0.1-0.848,0.153-1.293,0.153h-1.293
		c-0.445,0-0.879-0.053-1.293-0.153c-0.414,0.1-0.848,0.153-1.293,0.153h-1.293c-0.445,0-0.879-0.053-1.293-0.153
		c-0.414,0.1-0.848,0.153-1.293,0.153h-1.293c-0.445,0-0.879-0.053-1.293-0.153c-0.414,0.1-0.848,0.153-1.293,0.153h-1.293
		c-0.445,0-0.879-0.053-1.293-0.153c-0.414,0.1-0.848,0.153-1.293,0.153h-1.293c-0.445,0-0.879-0.053-1.293-0.153
		c-0.414,0.1-0.848,0.153-1.293,0.153h-1.293c-0.445,0-0.879-0.053-1.293-0.153c-0.414,0.1-0.848,0.153-1.293,0.153h-1.293
		c-0.445,0-0.879-0.053-1.293-0.153c-0.414,0.1-0.848,0.153-1.293,0.153h-1.293c-0.445,0-0.879-0.053-1.293-0.153
		c-0.414,0.1-0.848,0.153-1.293,0.153h-1.293c-0.445,0-0.879-0.053-1.293-0.153c-0.414,0.1-0.848,0.153-1.293,0.153h-1.293
		c-0.445,0-0.879-0.053-1.293-0.153c-0.414,0.1-0.848,0.153-1.293,0.153h-1.293c-0.445,0-0.879-0.053-1.293-0.153
		c-0.414,0.1-0.848,0.153-1.293,0.153h-1.293c-0.445,0-0.879-0.053-1.293-0.153c-0.414,0.1-0.848,0.153-1.293,0.153h-1.293
		c-0.445,0-0.879-0.053-1.293-0.153c-0.414,0.1-0.848,0.153-1.293,0.153h-1.293c-0.445,0-0.879-0.053-1.293-0.153
		c-0.414,0.1-0.848,0.153-1.293,0.153h-1.293c-0.445,0-0.879-0.053-1.293-0.153c-0.414,0.1-0.848,0.153-1.293,0.153h-1.293
		c-0.445,0-0.879-0.053-1.293-0.153c-0.414,0.1-0.848,0.153-1.293,0.153h-1.293c-0.445,0-0.879-0.053-1.293-0.153
		c-0.414,0.1-0.848,0.153-1.293,0.153h-1.293c-0.445,0-0.879-0.053-1.293-0.153c-0.414,0.1-0.848,0.153-1.293,0.153h-1.293
		c-0.445,0-0.879-0.053-1.293-0.153c-0.414,0.1-0.848,0.153-1.293,0.153H61.9c-0.445,0-0.879-0.053-1.293-0.153
		c-0.414,0.1-0.848,0.153-1.293,0.153h-1.293c-0.445,0-0.879-0.053-1.293-0.153c-0.414,0.1-0.848,0.153-1.293,0.153h-1.293
		c-0.445,0-0.879-0.053-1.293-0.153c-0.414,0.1-0.848,0.153-1.293,0.153h-1.293c-0.445,0-0.879-0.053-1.293-0.153
		c-0.414,0.1-0.848,0.153-1.293,0.153h-1.293c-0.445,0-0.879-0.053-1.293-0.153c-0.414,0.1-0.848,0.153-1.293,0.153h-1.293
		c-0.445,0-0.879-0.053-1.293-0.153c-0.414,0.1-0.848,0.153-1.293,0.153h-1.293c-0.445,0-0.879-0.053-1.293-0.153
		c-0.414,0.1-0.848,0.153-1.293,0.153h-1.293c-0.445,0-0.879-0.053-1.293-0.153c-0.414,0.1-0.848,0.153-1.293,0.153H30.87
		c-0.445,0-0.879-0.053-1.293-0.153c-0.414,0.1-0.848,0.153-1.293,0.153h-1.293c-0.445,0-0.879-0.053-1.293-0.153
		c-0.414,0.1-0.848,0.153-1.293,0.153h-1.293c-0.445,0-0.879-0.053-1.293-0.153c-0.414,0.1-0.848,0.153-1.293,0.153h-1.293
		c-0.445,0-0.879-0.053-1.293-0.153c-0.414,0.1-0.848,0.153-1.293,0.153h-1.293c-0.445,0-0.879-0.053-1.293-0.153
		c-0.414,0.1-0.848,0.153-1.293,0.153h-1.293c-0.445,0-0.879-0.053-1.293-0.153c-0.08,0.019-0.162,0.037-0.242,0.053
		c-0.025,0.188-0.06,0.372-0.104,0.553c0.1,0.414,0.153,0.848,0.153,1.293v1.293c0,0.445-0.053,0.879-0.153,1.293
		c0.1,0.414,0.153,0.848,0.153,1.293v1.293c0,0.445-0.053,0.879-0.153,1.293c0.1,0.414,0.153,0.848,0.153,1.293v1.293
		c0,0.445-0.053,0.879-0.153,1.293c0.1,0.414,0.153,0.848,0.153,1.293v1.293c0,0.445-0.053,0.879-0.153,1.293
		c0.1,0.414,0.153,0.848,0.153,1.293v1.293c0,0.445-0.053,0.879-0.153,1.293c0.1,0.414,0.153,0.848,0.153,1.293v1.293
		c0,0.445-0.053,0.879-0.153,1.293c0.1,0.414,0.153,0.848,0.153,1.293v1.293c0,0.445-0.053,0.879-0.153,1.293
		c0.1,0.414,0.153,0.848,0.153,1.293v1.293c0,0.445-0.053,0.879-0.153,1.293c0.1,0.414,0.153,0.848,0.153,1.293v1.293
		c0,0.445-0.053,0.879-0.153,1.293c0.1,0.414,0.153,0.848,0.153,1.293v1.293c0,0.445-0.053,0.879-0.153,1.293
		c0.1,0.414,0.153,0.848,0.153,1.293v1.293c0,0.445-0.053,0.879-0.153,1.293c0.1,0.414,0.153,0.848,0.153,1.293v1.293
		c0,0.445-0.053,0.879-0.153,1.293c0.1,0.414,0.153,0.848,0.153,1.293v1.293c0,0.445-0.053,0.879-0.153,1.293
		c0.1,0.414,0.153,0.848,0.153,1.293v1.293c0,0.445-0.053,0.879-0.153,1.293c0.1,0.414,0.153,0.848,0.153,1.293v1.293
		c0,0.445-0.053,0.879-0.153,1.293c0.1,0.414,0.153,0.848,0.153,1.293v1.293c0,0.445-0.053,0.879-0.153,1.293
		c0.1,0.414,0.153,0.848,0.153,1.293v1.293c0,0.445-0.053,0.879-0.153,1.293c0.1,0.414,0.153,0.848,0.153,1.293v1.293
		c0,0.445-0.053,0.879-0.153,1.293c0.1,0.414,0.153,0.848,0.153,1.293v1.293c0,0.445-0.053,0.879-0.153,1.293
		c0.1,0.414,0.153,0.848,0.153,1.293v1.293c0,0.445-0.053,0.879-0.153,1.293c0.1,0.414,0.153,0.848,0.153,1.293v1.293
		c0,0.445-0.053,0.879-0.153,1.293c0.1,0.414,0.153,0.848,0.153,1.293v1.293c0,0.445-0.053,0.879-0.153,1.293
		c0.1,0.414,0.153,0.848,0.153,1.293v1.293c0,0.445-0.053,0.879-0.153,1.293c0.1,0.414,0.153,0.848,0.153,1.293v1.293
		c0,0.445-0.053,0.879-0.153,1.293c0.1,0.414,0.153,0.848,0.153,1.293v1.293c0,0.445-0.053,0.879-0.153,1.293
		c0.1,0.414,0.153,0.848,0.153,1.293V110c0,0.445-0.053,0.879-0.153,1.293c0.1,0.414,0.153,0.848,0.153,1.293v1.293
		c0,0.445-0.053,0.879-0.153,1.293c0.1,0.414,0.153,0.848,0.153,1.293v1.293c0,0.445-0.053,0.879-0.153,1.293
		c0.1,0.414,0.153,0.848,0.153,1.293v1.293c0,0.445-0.053,0.879-0.153,1.293c0.1,0.414,0.153,0.848,0.153,1.293v1.293
		c0,0.445-0.053,0.879-0.153,1.293c0.1,0.414,0.153,0.848,0.153,1.293v1.293c0,0.445-0.053,0.879-0.153,1.293
		c0.1,0.414,0.153,0.848,0.153,1.293v1.293c0,0.445-0.053,0.879-0.153,1.293c0.1,0.414,0.153,0.848,0.153,1.293v1.293
		c0,0.445-0.053,0.879-0.153,1.293c0.1,0.414,0.153,0.848,0.153,1.293v1.293c0,0.445-0.053,0.879-0.153,1.293
		c0.1,0.414,0.153,0.848,0.153,1.293v1.293c0,0.445-0.053,0.879-0.153,1.293c0.1,0.414,0.153,0.848,0.153,1.293v1.293
		c0,0.445-0.053,0.879-0.153,1.293c0.1,0.414,0.153,0.848,0.153,1.293v1.293c0,0.445-0.053,0.879-0.153,1.293
		c0.1,0.414,0.153,0.848,0.153,1.293v1.293c0,0.445-0.053,0.879-0.153,1.293c0.1,0.414,0.153,0.848,0.153,1.293v1.293
		c0,0.445-0.053,0.879-0.153,1.293c0.1,0.414,0.153,0.848,0.153,1.293v1.293c0,0.445-0.053,0.879-0.153,1.293
		c0.1,0.415,0.153,0.848,0.153,1.293v1.293c0,0.445-0.053,0.878-0.153,1.293c0.1,0.415,0.153,0.848,0.153,1.293v1.293
		c0,0.445-0.053,0.878-0.153,1.293c0.1,0.415,0.153,0.848,0.153,1.293v1.293c0,0.445-0.053,0.878-0.153,1.293
		c0.1,0.415,0.153,0.848,0.153,1.293v1.293c0,0.445-0.053,0.878-0.153,1.293c0.1,0.415,0.153,0.848,0.153,1.293v1.293
		c0,0.445-0.053,0.878-0.153,1.293c0.1,0.415,0.153,0.848,0.153,1.293v1.293c0,0.445-0.053,0.878-0.153,1.293
		c0.1,0.415,0.153,0.848,0.153,1.293v1.293c0,0.445-0.053,0.878-0.153,1.293c0.1,0.415,0.153,0.848,0.153,1.293v1.293
		c0,0.445-0.053,0.878-0.153,1.293c0.1,0.415,0.153,0.848,0.153,1.293v1.293c0,0.445-0.053,0.878-0.153,1.293
		c0.1,0.415,0.153,0.848,0.153,1.293v1.293c0,0.445-0.053,0.878-0.153,1.293c0.1,0.415,0.153,0.848,0.153,1.293v1.293
		c0,0.445-0.053,0.878-0.153,1.293c0.03,0.122,0.055,0.246,0.076,0.371c0.359,0.016,0.709,0.066,1.047,0.147
		c0.414-0.1,0.848-0.153,1.293-0.153h1.293c0.445,0,0.879,0.053,1.293,0.153c0.414-0.1,0.848-0.153,1.293-0.153h1.293
		c0.445,0,0.879,0.053,1.293,0.153c0.414-0.1,0.848-0.153,1.293-0.153h1.293c0.445,0,0.879,0.053,1.293,0.153
		c0.414-0.1,0.848-0.153,1.293-0.153h1.293c0.445,0,0.879,0.053,1.293,0.153c0.414-0.1,0.848-0.153,1.293-0.153h1.293
		c0.445,0,0.879,0.053,1.293,0.153c0.414-0.1,0.848-0.153,1.293-0.153h1.293c0.445,0,0.879,0.053,1.293,0.153
		c0.414-0.1,0.848-0.153,1.293-0.153h1.293c0.445,0,0.879,0.053,1.293,0.153c0.414-0.1,0.848-0.153,1.293-0.153h1.293
		c0.445,0,0.879,0.053,1.293,0.153c0.414-0.1,0.848-0.153,1.293-0.153h1.293c0.445,0,0.879,0.053,1.293,0.153
		c0.414-0.1,0.848-0.153,1.293-0.153h1.293c0.445,0,0.879,0.053,1.293,0.153c0.414-0.1,0.848-0.153,1.293-0.153h1.293
		c0.445,0,0.879,0.053,1.293,0.153c0.414-0.1,0.848-0.153,1.293-0.153h1.293c0.445,0,0.879,0.053,1.293,0.153
		c0.414-0.1,0.848-0.153,1.293-0.153h1.293c0.445,0,0.879,0.053,1.293,0.153c0.414-0.1,0.848-0.153,1.293-0.153h1.293
		c0.445,0,0.879,0.053,1.293,0.153c0.414-0.1,0.848-0.153,1.293-0.153h1.293c0.445,0,0.879,0.053,1.293,0.153
		c0.414-0.1,0.848-0.153,1.293-0.153h1.293c0.445,0,0.879,0.053,1.293,0.153c0.414-0.1,0.848-0.153,1.293-0.153h1.293
		c0.445,0,0.879,0.053,1.293,0.153c0.414-0.1,0.848-0.153,1.293-0.153h1.293c0.445,0,0.879,0.053,1.293,0.153
		c0.414-0.1,0.848-0.153,1.293-0.153h1.293c0.445,0,0.879,0.053,1.293,0.153c0.414-0.1,0.848-0.153,1.293-0.153h1.293
		c0.445,0,0.879,0.053,1.293,0.153c0.414-0.1,0.848-0.153,1.293-0.153h1.293c0.445,0,0.879,0.053,1.293,0.153
		c0.414-0.1,0.848-0.153,1.293-0.153H95c0.445,0,0.879,0.053,1.293,0.153c0.414-0.1,0.848-0.153,1.293-0.153h1.293
		c0.445,0,0.879,0.053,1.293,0.153c0.414-0.1,0.848-0.153,1.293-0.153h1.293c0.445,0,0.879,0.053,1.293,0.153
		c0.414-0.1,0.848-0.153,1.293-0.153h1.293c0.445,0,0.879,0.053,1.293,0.153c0.414-0.1,0.848-0.153,1.293-0.153h1.293
		c0.445,0,0.879,0.053,1.293,0.153c0.414-0.1,0.848-0.153,1.293-0.153h1.293c0.445,0,0.879,0.053,1.293,0.153
		c0.414-0.1,0.848-0.153,1.293-0.153h1.293c0.445,0,0.879,0.053,1.293,0.153c0.414-0.1,0.848-0.153,1.293-0.153h1.293
		c0.445,0,0.879,0.053,1.293,0.153c0.414-0.1,0.848-0.153,1.293-0.153h1.293c0.445,0,0.879,0.053,1.293,0.153
		c0.414-0.1,0.848-0.153,1.293-0.153h1.293c0.445,0,0.879,0.053,1.293,0.153c0.414-0.1,0.848-0.153,1.293-0.153h1.293
		c0.445,0,0.879,0.053,1.293,0.153c0.414-0.1,0.848-0.153,1.293-0.153h1.293c0.445,0,0.879,0.053,1.293,0.153
		c0.414-0.1,0.848-0.153,1.293-0.153h1.293c0.445,0,0.879,0.053,1.293,0.153c0.414-0.1,0.848-0.153,1.293-0.153h1.293
		c0.445,0,0.879,0.053,1.293,0.153c0.414-0.1,0.848-0.153,1.293-0.153h1.293c0.445,0,0.879,0.053,1.293,0.153
		c0.414-0.1,0.848-0.153,1.293-0.153h1.293c0.445,0,0.879,0.053,1.293,0.153c0.414-0.1,0.848-0.153,1.293-0.153h1.293
		c0.445,0,0.879,0.053,1.293,0.153c0.414-0.1,0.848-0.153,1.293-0.153h1.293c0.445,0,0.879,0.053,1.293,0.153
		c0.414-0.1,0.848-0.153,1.293-0.153h1.293c0.445,0,0.878,0.053,1.293,0.153c0.415-0.1,0.848-0.153,1.293-0.153h1.293
		c0.445,0,0.878,0.053,1.293,0.153c0.415-0.1,0.848-0.153,1.293-0.153h1.293c0.445,0,0.878,0.053,1.293,0.153
		c0.415-0.1,0.848-0.153,1.293-0.153h1.293c0.445,0,0.878,0.053,1.293,0.153c0.415-0.1,0.848-0.153,1.293-0.153h1.293
		c0.445,0,0.878,0.053,1.293,0.153c0.415-0.1,0.848-0.153,1.293-0.153h1.293c0.445,0,0.878,0.053,1.293,0.153
		c0.415-0.1,0.848-0.153,1.293-0.153h1.293c0.445,0,0.878,0.053,1.293,0.153c0.415-0.1,0.848-0.153,1.293-0.153h1.293
		c0.445,0,0.878,0.053,1.293,0.153c0.415-0.1,0.848-0.153,1.293-0.153h1.293c0.445,0,0.878,0.053,1.293,0.153
		c0.415-0.1,0.848-0.153,1.293-0.153h1.293c0.445,0,0.878,0.053,1.293,0.153C201.435,208.68,201.868,208.627,202.313,208.627z"/>
	<path d="M291.353,87.221c-3.035,0-5.495-2.46-5.495-5.495c0-21.305-17.333-38.637-38.637-38.637c-3.035,0-5.495-2.46-5.495-5.495
		c0-3.035,2.46-5.495,5.495-5.495c27.364,0,49.627,22.263,49.627,49.627C296.848,84.761,294.388,87.221,291.353,87.221z"/>
	<path d="M291.351,87.221c-0.834,0-1.675-0.189-2.456-0.58l-11.033-5.517c-2.714-1.358-3.814-4.658-2.457-7.372
		s4.657-3.815,7.372-2.457l7.49,3.745l8.232-8.232c2.146-2.146,5.625-2.146,7.771,0c2.146,2.146,2.146,5.625,0,7.771l-11.033,11.033
		C294.183,86.666,292.777,87.221,291.351,87.221z"/>
	<path d="M252.742,54.123c-2.016,0-3.956-1.113-4.919-3.039l-5.516-11.033c-1.058-2.115-0.643-4.671,1.029-6.343l11.033-11.033
		c2.146-2.146,5.625-2.146,7.771,0c2.146,2.146,2.146,5.625,0,7.771l-8.232,8.232l3.745,7.491c1.358,2.715,0.257,6.015-2.457,7.372
		C254.406,53.936,253.567,54.123,252.742,54.123z"/>
	<path d="M324.452,329.947H114.825c-3.035,0-5.495-2.46-5.495-5.495v-110.33c0-3.035,2.46-5.495,5.495-5.495
		c3.035,0,5.495,2.46,5.495,5.495v104.835h198.637V120.32H214.122c-3.035,0-5.495-2.46-5.495-5.495c0-3.035,2.46-5.495,5.495-5.495
		h110.33c3.035,0,5.495,2.46,5.495,5.495v209.627C329.947,327.487,327.487,329.947,324.452,329.947z"/>
</g>
<g>
</g>
<g>
</g>
<g>
</g>
<g>
</g>
<g>
</g>
<g>
</g>
<g>
</g>
<g>
</g>
<g>
</g>
<g>
</g>
<g>
</g>
<g>
</g>
<g>
</g>
<g>
</g>
<g>
</g>
</svg>
