<svg height="512" viewBox="0 0 256 256" width="512" xmlns="http://www.w3.org/2000/svg"><g><g><g><path d="m210.318 233.744h-164.636c-5.051 0-9.146-4.095-9.146-9.146v-164.637c0-5.051 4.095-9.146 9.146-9.146h164.636c5.051 0 9.146 4.095 9.146 9.146v164.636c.001 5.052-4.094 9.147-9.146 9.147z" fill="#f1f2f2"/></g><g><path d="m210.318 50.815h-.854v163.782c0 5.052-4.095 9.146-9.146 9.146h-163.783v.854c0 5.052 4.095 9.146 9.146 9.146h164.636c5.051 0 9.146-4.095 9.146-9.146v-164.635c.002-5.052-4.093-9.147-9.145-9.147z" fill="#e6e7e8"/></g><g><path d="m213.781 51.498c.438 1.069.683 2.237.683 3.463v164.636c0 5.052-4.095 9.146-9.146 9.146h-164.636c-1.226 0-2.395-.245-3.463-.683 1.366 3.333 4.638 5.683 8.463 5.683h164.636c5.051 0 9.146-4.095 9.146-9.146v-164.635c.001-3.826-2.349-7.098-5.683-8.464z" fill="#d1d3d4"/></g><g><path d="m210.318 50.815h-164.636c-5.051 0-9.146 4.095-9.146 9.146v33.791h182.929v-33.791c0-5.051-4.095-9.146-9.147-9.146z" fill="#ffa91a"/></g><g><circle cx="86.841" cy="71.504" fill="#ef7816" r="14.197"/></g><g><circle cx="169.459" cy="71.504" fill="#ef7816" r="14.197"/></g><g><g><path d="m42.54 218.2c-1.11 0-2.01-.9-2.01-2 0-1.101.9-2 2.01-2 1.1 0 1.99.899 1.99 2 0 1.1-.89 2-1.99 2zm0-8c-1.11 0-2.01-.9-2.01-2v-108.87c0-1.101.9-2 2.01-2 1.1 0 1.99.899 1.99 2v108.87c0 1.1-.89 2-1.99 2z" fill="#fff"/></g></g><g><path d="m210.318 50.815h-10c5.051 0 9.146 4.095 9.146 9.146v33.791h10v-33.79c.001-5.052-4.094-9.147-9.146-9.147z" fill="#f79219"/></g><g><path d="m86.841 79.374c-4.841 0-8.765-3.924-8.765-8.765v-39.588c0-4.841 3.924-8.765 8.765-8.765s8.765 3.924 8.765 8.765v39.587c0 4.842-3.924 8.766-8.765 8.766z" fill="#e6e7e8"/></g><g><path d="m90.007 22.855c.382.983.599 2.048.599 3.166v39.587c0 4.841-3.924 8.765-8.765 8.765-1.118 0-2.183-.218-3.166-.599 1.271 3.274 4.443 5.599 8.166 5.599 4.841 0 8.765-3.925 8.765-8.765v-39.587c0-3.723-2.325-6.895-5.599-8.166z" fill="#d1d3d4"/></g><g><path d="m169.159 79.374c-4.841 0-8.765-3.924-8.765-8.765v-39.588c0-4.841 3.924-8.765 8.765-8.765s8.765 3.924 8.765 8.765v39.587c0 4.842-3.924 8.766-8.765 8.766z" fill="#e6e7e8"/></g><g><path d="m172.325 22.855c.382.983.599 2.048.599 3.166v39.587c0 4.841-3.924 8.765-8.765 8.765-1.118 0-2.183-.218-3.166-.599 1.271 3.274 4.443 5.599 8.166 5.599 4.841 0 8.765-3.925 8.765-8.765v-39.587c0-3.723-2.325-6.895-5.599-8.166z" fill="#d1d3d4"/></g></g><g><g><path d="m204.707 110.513v24.463c0 1.199-.972 2.172-2.172 2.172h-24.463c-1.2 0-2.172-.972-2.172-2.172v-24.463c0-1.199.972-2.172 2.172-2.172h24.463c1.199 0 2.172.972 2.172 2.172z" fill="#ffa91a"/></g><g><path d="m163.171 110.513v24.463c0 1.199-.972 2.172-2.172 2.172h-24.463c-1.2 0-2.172-.972-2.172-2.172v-24.463c0-1.199.972-2.172 2.172-2.172h24.463c1.2 0 2.172.972 2.172 2.172z" fill="#58595b"/></g><g><path d="m121.635 110.513v24.463c0 1.199-.972 2.172-2.172 2.172h-24.462c-1.2 0-2.172-.972-2.172-2.172v-24.463c0-1.199.972-2.172 2.172-2.172h24.463c1.199 0 2.171.972 2.171 2.172z" fill="#58595b"/></g><g><path d="m80.1 110.513v24.463c0 1.199-.972 2.172-2.172 2.172h-24.463c-1.2 0-2.172-.972-2.172-2.172v-24.463c0-1.199.972-2.172 2.172-2.172h24.463c1.199 0 2.172.972 2.172 2.172z" fill="#ffa91a"/></g><g><path d="m163.171 149.454v24.463c0 1.199-.972 2.172-2.172 2.172h-24.463c-1.2 0-2.172-.972-2.172-2.172v-24.463c0-1.199.972-2.172 2.172-2.172h24.463c1.2 0 2.172.973 2.172 2.172z" fill="#ffa91a"/></g><g><path d="m121.635 149.454v24.463c0 1.199-.972 2.172-2.172 2.172h-24.462c-1.2 0-2.172-.972-2.172-2.172v-24.463c0-1.199.972-2.172 2.172-2.172h24.463c1.199 0 2.171.973 2.171 2.172z" fill="#58595b"/></g><g><path d="m80.1 149.454v24.463c0 1.199-.972 2.172-2.172 2.172h-24.463c-1.2 0-2.172-.972-2.172-2.172v-24.463c0-1.199.972-2.172 2.172-2.172h24.463c1.199 0 2.172.973 2.172 2.172z" fill="#58595b"/></g><g><path d="m163.171 188.395v24.463c0 1.199-.972 2.172-2.172 2.172h-24.463c-1.2 0-2.172-.972-2.172-2.172v-24.463c0-1.199.972-2.172 2.172-2.172h24.463c1.2 0 2.172.973 2.172 2.172z" fill="#58595b"/></g><g><path d="m121.635 188.395v24.463c0 1.199-.972 2.172-2.172 2.172h-24.462c-1.2 0-2.172-.972-2.172-2.172v-24.463c0-1.199.972-2.172 2.172-2.172h24.463c1.199 0 2.171.973 2.171 2.172z" fill="#ffa91a"/></g><g><path d="m80.1 188.395v24.463c0 1.199-.972 2.172-2.172 2.172h-24.463c-1.2 0-2.172-.972-2.172-2.172v-24.463c0-1.199.972-2.172 2.172-2.172h24.463c1.199 0 2.172.973 2.172 2.172z" fill="#58595b"/></g><g><path d="m202.535 147.282h-24.463c-1.2 0-2.172.972-2.172 2.172v24.463c0 1.199.972 2.172 2.172 2.172h24.463c1.2 0 2.172-.972 2.172-2.172v-24.463c0-1.199-.973-2.172-2.172-2.172z" fill="#58595b"/></g><g><path d="m202.535 186.223h-24.463c-1.2 0-2.172.972-2.172 2.172v24.463c0 1.199.972 2.172 2.172 2.172h24.463c1.2 0 2.172-.973 2.172-2.172v-24.463c0-1.199-.973-2.172-2.172-2.172z" fill="#58595b"/></g></g><g><g><path d="m119.463 186.223h-2.828v21.635c0 1.199-.972 2.172-2.172 2.172h-21.634v2.828c0 1.199.972 2.172 2.172 2.172h24.463c1.2 0 2.172-.972 2.172-2.172v-24.463c-.001-1.199-.973-2.172-2.173-2.172z" fill="#f79219"/></g><g><path d="m119.463 108.341h-2.828v21.635c0 1.199-.972 2.172-2.172 2.172h-21.634v2.828c0 1.199.972 2.172 2.172 2.172h24.463c1.2 0 2.172-.972 2.172-2.172v-24.463c-.001-1.2-.973-2.172-2.173-2.172z" fill="#414042"/></g><g><path d="m77.928 108.341h-2.828v21.635c0 1.199-.972 2.172-2.172 2.172h-21.635v2.828c0 1.199.972 2.172 2.172 2.172h24.463c1.2 0 2.172-.972 2.172-2.172v-24.463c0-1.2-.973-2.172-2.172-2.172z" fill="#f79219"/></g><g><path d="m119.463 147.282h-2.828v21.635c0 1.199-.972 2.172-2.172 2.172h-21.634v2.828c0 1.199.972 2.172 2.172 2.172h24.463c1.2 0 2.172-.972 2.172-2.172v-24.463c-.001-1.2-.973-2.172-2.173-2.172z" fill="#414042"/></g><g><path d="m77.928 186.223h-2.828v21.635c0 1.199-.972 2.172-2.172 2.172h-21.635v2.828c0 1.199.972 2.172 2.172 2.172h24.463c1.2 0 2.172-.972 2.172-2.172v-24.463c0-1.199-.973-2.172-2.172-2.172z" fill="#414042"/></g><g><path d="m77.928 147.282h-2.828v21.635c0 1.199-.972 2.172-2.172 2.172h-21.635v2.828c0 1.199.972 2.172 2.172 2.172h24.463c1.2 0 2.172-.972 2.172-2.172v-24.463c0-1.2-.973-2.172-2.172-2.172z" fill="#414042"/></g><g><path d="m202.535 147.282h-2.828v21.635c0 1.199-.972 2.172-2.172 2.172h-21.635v2.828c0 1.199.972 2.172 2.172 2.172h24.463c1.2 0 2.172-.972 2.172-2.172v-24.463c0-1.2-.973-2.172-2.172-2.172z" fill="#414042"/></g><g><path d="m202.535 186.223h-2.828v21.635c0 1.199-.972 2.172-2.172 2.172h-21.635v2.828c0 1.199.972 2.172 2.172 2.172h24.463c1.2 0 2.172-.973 2.172-2.172v-24.463c0-1.199-.973-2.172-2.172-2.172z" fill="#414042"/></g><g><path d="m202.535 108.341h-2.828v21.635c0 1.199-.972 2.172-2.172 2.172h-21.635v2.828c0 1.199.972 2.172 2.172 2.172h24.463c1.2 0 2.172-.972 2.172-2.172v-24.463c0-1.2-.973-2.172-2.172-2.172z" fill="#f79219"/></g><g><path d="m160.999 186.223h-2.828v21.635c0 1.199-.972 2.172-2.172 2.172h-21.635v2.828c0 1.199.972 2.172 2.172 2.172h24.463c1.2 0 2.172-.972 2.172-2.172v-24.463c0-1.199-.972-2.172-2.172-2.172z" fill="#414042"/></g><g><path d="m160.999 147.282h-2.828v21.635c0 1.199-.972 2.172-2.172 2.172h-21.635v2.828c0 1.199.972 2.172 2.172 2.172h24.463c1.2 0 2.172-.972 2.172-2.172v-24.463c0-1.2-.972-2.172-2.172-2.172z" fill="#f79219"/></g><g><path d="m160.999 108.341h-2.828v21.635c0 1.199-.972 2.172-2.172 2.172h-21.635v2.828c0 1.199.972 2.172 2.172 2.172h24.463c1.2 0 2.172-.972 2.172-2.172v-24.463c0-1.2-.972-2.172-2.172-2.172z" fill="#414042"/></g></g><g><g><g><g><path d="m146.971 169.032c-.744 0-1.458-.296-1.984-.822l-5.486-5.485c-1.096-1.095-1.096-2.872 0-3.968s2.872-1.096 3.968 0l3.502 3.5 7.096-7.097c1.096-1.096 2.872-1.096 3.968 0 1.096 1.095 1.096 2.872 0 3.968l-9.08 9.081c-.526.527-1.239.823-1.984.823z" fill="#ef7816"/></g></g></g></g><g><g><g><g><path d="m188.507 130.091c-.744 0-1.458-.296-1.984-.822l-5.486-5.485c-1.096-1.095-1.096-2.872 0-3.968s2.872-1.096 3.968 0l3.502 3.5 7.096-7.097c1.096-1.096 2.872-1.096 3.968 0 1.096 1.095 1.096 2.872 0 3.968l-9.08 9.081c-.526.527-1.239.823-1.984.823z" fill="#ef7816"/></g></g></g></g><g><g><g><g><path d="m105.435 207.973c-.744 0-1.458-.296-1.984-.822l-5.486-5.485c-1.096-1.095-1.096-2.872 0-3.968s2.872-1.096 3.968 0l3.502 3.5 7.096-7.097c1.096-1.096 2.872-1.096 3.968 0 1.096 1.095 1.096 2.872 0 3.968l-9.08 9.081c-.526.527-1.238.823-1.984.823z" fill="#ef7816"/></g></g></g></g><g><g><g><g><path d="m63.9 130.091c-.744 0-1.458-.296-1.984-.822l-5.486-5.485c-1.096-1.095-1.096-2.872 0-3.968s2.872-1.096 3.968 0l3.502 3.5 7.096-7.097c1.096-1.096 2.872-1.096 3.968 0 1.096 1.095 1.096 2.872 0 3.968l-9.08 9.081c-.526.527-1.239.823-1.984.823z" fill="#ef7816"/></g></g></g></g></g></svg>