<svg height="512" viewBox="0 0 256 256" width="512" xmlns="http://www.w3.org/2000/svg"><g><g><g><path d="m192.317 241.233h-128.634c-4.814 0-8.716-3.902-8.716-8.716v-209.034c0-4.814 3.902-8.716 8.716-8.716h128.635c4.814 0 8.716 3.902 8.716 8.716v209.034c-.001 4.814-3.903 8.716-8.717 8.716z" fill="#f1f2f2"/></g><g><path d="m192.317 14.767h-1.284v207.75c0 4.814-3.902 8.716-8.716 8.716h-127.35v1.284c0 4.814 3.902 8.716 8.716 8.716h128.635c4.814 0 8.716-3.902 8.716-8.716v-209.034c-.001-4.814-3.903-8.716-8.717-8.716z" fill="#e6e7e8"/></g><g><path d="m195.445 15.355c.375.972.588 2.024.588 3.128v209.034c0 4.814-3.902 8.716-8.716 8.716h-128.634c-1.104 0-2.156-.213-3.128-.588 1.258 3.266 4.418 5.588 8.128 5.588h128.635c4.814 0 8.716-3.902 8.716-8.716v-209.034c-.001-3.71-2.322-6.87-5.589-8.128z" fill="#d1d3d4"/></g><g><path d="m182.293 208.982h-108.586c-2.407 0-4.358-1.951-4.358-4.358v-169.116c0-2.407 1.951-4.358 4.358-4.358h108.587c2.407 0 4.358 1.951 4.358 4.358v169.116c-.001 2.407-1.952 4.358-4.359 4.358z" fill="#58595b"/></g><g><path d="m182.293 31.15h-15.642v163.474c0 2.407-1.951 4.358-4.358 4.358h-92.944v5.642c0 2.407 1.951 4.358 4.358 4.358h108.587c2.407 0 4.358-1.951 4.358-4.358v-169.116c-.001-2.407-1.952-4.358-4.359-4.358z" fill="#414042"/></g><g><path d="m145.712 225.326h-35.837c-2.053 0-3.717-1.664-3.717-3.717s1.664-3.717 3.717-3.717h35.837c2.053 0 3.717 1.664 3.717 3.717-.001 2.053-1.665 3.717-3.717 3.717z" fill="#d1d3d4"/></g><g><g><path d="m60.97 136.42c-1.11 0-2-.89-2-2 0-1.1.89-2 2-2 1.1 0 2 .9 2 2 0 1.11-.9 2-2 2zm0-8c-1.11 0-2-.89-2-2v-102.94c0-2.59 2.12-4.71 4.71-4.71h50.8c1.1 0 2 .89 2 2 0 1.1-.9 2-2 2h-50.8c-.38 0-.71.33-.71.71v102.93.01c0 1.11-.9 2-2 2z" fill="#fff"/></g></g></g><g><g><g><g><g><g><path d="m99.027 43.314c-28.554.022-52.091 23.38-52.322 51.933-.084 10.466 2.902 20.228 8.112 28.441.498.785.624 1.749.312 2.624l-5.194 14.558c-.843 2.364 1.438 4.645 3.802 3.802l14.511-5.177c.88-.314 1.848-.185 2.635.319 8.667 5.547 19.073 8.614 30.221 8.191 27.275-1.034 49.378-23.234 50.3-50.513 1.004-29.761-22.836-54.201-52.377-54.178z" fill="#76a34f"/></g></g></g><g><path d="m130.759 53.988c7.036 9.243 11.07 20.896 10.644 33.503-.921 27.279-23.024 49.479-50.299 50.514-11.148.423-21.554-2.645-30.221-8.192-.787-.503-1.755-.633-2.635-.319l-4.875 1.74-3.438 9.636c-.843 2.364 1.438 4.646 3.802 3.802l14.511-5.177c.88-.314 1.848-.185 2.635.319 8.667 5.547 19.073 8.614 30.221 8.192 27.275-1.034 49.379-23.235 50.299-50.514.599-17.746-7.635-33.6-20.644-43.504z" fill="#648940"/></g><g><g><g><path d="m201.183 174.79c5.21-8.214 8.197-17.978 8.112-28.445-.232-28.553-23.772-51.91-52.327-51.929-29.54-.02-53.377 24.42-52.371 54.181.922 27.279 23.027 49.477 50.301 50.51 11.147.422 21.553-2.645 30.219-8.191.787-.503 1.755-.632 2.635-.319l14.511 5.177c2.364.843 4.645-1.438 3.802-3.802l-5.194-14.558c-.312-.875-.186-1.839.312-2.624z" fill="#ffa91a"/></g></g></g><g><path d="m200.871 177.414c-.312-.875-.186-1.839.312-2.624 5.21-8.214 8.197-17.978 8.112-28.445-.136-16.729-8.273-31.675-20.732-41.188 6.642 8.699 10.637 19.509 10.732 31.188.085 10.467-2.901 20.23-8.112 28.445-.498.785-.624 1.749-.312 2.624l5.194 14.558c.843 2.364-1.438 4.646-3.802 3.802l-14.511-5.177c-.88-.314-1.848-.185-2.635.319-8.667 5.547-19.072 8.614-30.219 8.192-11.085-.42-21.315-4.336-29.617-10.668 9.203 12.063 23.508 20.057 39.617 20.668 11.147.422 21.553-2.645 30.219-8.192.787-.503 1.755-.632 2.635-.319l14.511 5.177c2.364.843 4.645-1.438 3.802-3.802z" fill="#f79219"/></g></g></g><g><g><g><path d="m180.781 135.392h-47.699c-2.041 0-3.696-1.655-3.696-3.696s1.655-3.696 3.696-3.696h47.699c2.041 0 3.696 1.655 3.696 3.696s-1.655 3.696-3.696 3.696z" fill="#fff"/></g></g><g><g><path d="m180.781 151.74h-47.699c-2.041 0-3.696-1.655-3.696-3.696s1.655-3.696 3.696-3.696h47.699c2.041 0 3.696 1.655 3.696 3.696s-1.655 3.696-3.696 3.696z" fill="#fff"/></g></g><g><g><path d="m164.671 168.088h-31.589c-2.041 0-3.696-1.655-3.696-3.696s1.655-3.696 3.696-3.696h31.589c2.041 0 3.696 1.655 3.696 3.696s-1.654 3.696-3.696 3.696z" fill="#fff"/></g></g></g><g><g><g><path d="m122.918 81.764h-47.699c-2.041 0-3.696-1.655-3.696-3.696s1.655-3.696 3.696-3.696h47.699c2.041 0 3.696 1.655 3.696 3.696-.001 2.041-1.655 3.696-3.696 3.696z" fill="#fff"/></g></g><g><g><path d="m122.918 98.112h-47.699c-2.041 0-3.696-1.655-3.696-3.696s1.655-3.696 3.696-3.696h47.699c2.041 0 3.696 1.655 3.696 3.696-.001 2.041-1.655 3.696-3.696 3.696z" fill="#fff"/></g></g><g><g><path d="m106.808 114.46h-31.589c-2.041 0-3.696-1.655-3.696-3.696s1.655-3.696 3.696-3.696h31.589c2.041 0 3.696 1.655 3.696 3.696s-1.655 3.696-3.696 3.696z" fill="#fff"/></g></g></g></g></g></svg>