<svg height="512" viewBox="0 0 64 64" width="512" xmlns="http://www.w3.org/2000/svg"><g id="Icons"><g><g><path d="m38 56h-12c.747-3.733.314-1.571 2-10h8c1.521 7.605 1.198 5.99 2 10z" fill="#00a0c8"/></g></g><g><g><path d="m37.4 53h-10.8l1.4-7h8z" fill="#0082aa"/></g></g><g><g><path d="m47 60h-30c-.552 0-1-.448-1-1v-1c0-1.105.895-2 2-2h28c1.105 0 2 .895 2 2v1c0 .552-.448 1-1 1z" fill="#0a5078"/></g></g><g><g><path d="m60 19v31c0 1.1-.9 2-2 2h-52c-1.1 0-2-.9-2-2v-31c0-1.1.9-2 2-2h52c1.1 0 2 .9 2 2z" fill="#0a5078"/></g></g><g><g><path d="m58 20v25c0 .55-.45 1-1 1h-50c-.55 0-1-.45-1-1v-25c0-.55.45-1 1-1h50c.55 0 1 .45 1 1z" fill="#fab400"/></g></g><g><g><path d="m55 50h2c.552 0 1-.448 1-1s-.448-1-1-1h-2c-.552 0-1 .448-1 1s.448 1 1 1z" fill="#f0f0f0"/></g></g><g><g><path d="m10 19v22c0 .55.45 1 1 1h42c.55 0 1-.45 1-1v-22c-.001 0-44 0-44 0z" fill="#dc9600"/></g></g><g><g><path d="m54 10v30c0 .55-.45 1-1 1h-42c-.55 0-1-.45-1-1v-30z" fill="#f0f0f0"/></g></g><g><g><g><path d="m20.001 35c-.304 0-.604-.138-.801-.4l-6-8c-.267-.355-.267-.844 0-1.199l6-8c.332-.442.958-.531 1.4-.2s.531.958.2 1.399l-5.55 7.4 5.55 7.4c.332.441.242 1.068-.2 1.399-.18.136-.391.201-.599.201z" fill="#d2d2d2"/></g></g></g><g><g><g><path d="m43.999 35c-.208 0-.419-.065-.599-.2-.442-.331-.531-.958-.2-1.399l5.55-7.4-5.55-7.4c-.332-.441-.242-1.068.2-1.399.443-.331 1.069-.242 1.4.2l6 8c.267.355.267.844 0 1.199l-6 8c-.196.261-.497.399-.801.399z" fill="#d2d2d2"/></g></g></g><g><g><g><g><g><path d="m38 19h-6c-.552 0-1-.447-1-1s.448-1 1-1h6c.552 0 1 .447 1 1s-.448 1-1 1z" fill="#d2d2d2"/></g></g></g><g><g><g><path d="m28 19h-2c-.552 0-1-.447-1-1s.448-1 1-1h2c.552 0 1 .447 1 1s-.448 1-1 1z" fill="#d2d2d2"/></g></g></g></g><g><g><g><g><path d="m38 23h-6c-.552 0-1-.447-1-1s.448-1 1-1h6c.552 0 1 .447 1 1s-.448 1-1 1z" fill="#d2d2d2"/></g></g></g><g><g><g><path d="m28 23h-2c-.552 0-1-.447-1-1s.448-1 1-1h2c.552 0 1 .447 1 1s-.448 1-1 1z" fill="#d2d2d2"/></g></g></g></g><g><g><g><g><path d="m38 27h-6c-.552 0-1-.447-1-1s.448-1 1-1h6c.552 0 1 .447 1 1s-.448 1-1 1z" fill="#d2d2d2"/></g></g></g><g><g><g><path d="m28 27h-2c-.552 0-1-.447-1-1s.448-1 1-1h2c.552 0 1 .447 1 1s-.448 1-1 1z" fill="#d2d2d2"/></g></g></g></g><g><g><g><g><path d="m38 31h-6c-.552 0-1-.447-1-1s.448-1 1-1h6c.552 0 1 .447 1 1s-.448 1-1 1z" fill="#d2d2d2"/></g></g></g><g><g><g><path d="m28 31h-2c-.552 0-1-.447-1-1s.448-1 1-1h2c.552 0 1 .447 1 1s-.448 1-1 1z" fill="#d2d2d2"/></g></g></g></g><g><g><g><g><path d="m38 35h-6c-.552 0-1-.447-1-1s.448-1 1-1h6c.552 0 1 .447 1 1s-.448 1-1 1z" fill="#d2d2d2"/></g></g></g><g><g><g><path d="m28 35h-2c-.552 0-1-.447-1-1s.448-1 1-1h2c.552 0 1 .447 1 1s-.448 1-1 1z" fill="#d2d2d2"/></g></g></g></g></g><g><g><path d="m54 10h-44v-5c0-.552.448-1 1-1h42c.552 0 1 .448 1 1z" fill="#00a0c8"/></g></g><g><g><path d="m51 9c.552 0 1-.448 1-1s-.448-1-1-1-1 .448-1 1 .448 1 1 1z" fill="#0082aa"/></g></g><g><g><path d="m47 9c.552 0 1-.448 1-1s-.448-1-1-1-1 .448-1 1 .448 1 1 1z" fill="#0082aa"/></g></g><g><g><path d="m43 9c.552 0 1-.448 1-1s-.448-1-1-1-1 .448-1 1 .448 1 1 1z" fill="#0082aa"/></g></g><g><g><path d="m23 9h-10c-.552 0-1-.448-1-1s.448-1 1-1h10c.552 0 1 .448 1 1s-.448 1-1 1z" fill="#0082aa"/></g></g><g><g><path d="m51 8c.552 0 1-.448 1-1s-.448-1-1-1-1 .448-1 1 .448 1 1 1z" fill="#fab400"/></g></g><g><g><path d="m47 8c.552 0 1-.448 1-1s-.448-1-1-1-1 .448-1 1 .448 1 1 1z" fill="#f0f0f0"/></g></g><g><g><path d="m43 8c.552 0 1-.448 1-1s-.448-1-1-1-1 .448-1 1 .448 1 1 1z" fill="#c80a50"/></g></g><g><g><path d="m23 8h-10c-.552 0-1-.448-1-1s.448-1 1-1h10c.552 0 1 .448 1 1s-.448 1-1 1z" fill="#0a5078"/></g></g><g><g><g><path d="m20.001 34c-.304 0-.604-.138-.801-.4l-6-8c-.267-.355-.267-.844 0-1.199l6-8c.332-.442.958-.531 1.4-.2s.531.958.2 1.399l-5.55 7.4 5.55 7.4c.332.441.242 1.068-.2 1.399-.18.136-.391.201-.599.201z" fill="#c80a50"/></g></g></g><g><g><g><path d="m43.999 34c-.208 0-.419-.065-.599-.2-.442-.331-.531-.958-.2-1.399l5.55-7.4-5.55-7.4c-.332-.441-.242-1.068.2-1.399.443-.331 1.069-.242 1.4.2l6 8c.267.355.267.844 0 1.199l-6 8c-.196.261-.497.399-.801.399z" fill="#c80a50"/></g></g></g><g><g><g><g><g><path d="m38 18h-6c-.552 0-1-.447-1-1s.448-1 1-1h6c.552 0 1 .447 1 1s-.448 1-1 1z" fill="#0a5078"/></g></g></g><g><g><g><path d="m28 18h-2c-.552 0-1-.447-1-1s.448-1 1-1h2c.552 0 1 .447 1 1s-.448 1-1 1z" fill="#0a5078"/></g></g></g></g><g><g><g><g><path d="m38 22h-6c-.552 0-1-.447-1-1s.448-1 1-1h6c.552 0 1 .447 1 1s-.448 1-1 1z" fill="#0a5078"/></g></g></g><g><g><g><path d="m28 22h-2c-.552 0-1-.447-1-1s.448-1 1-1h2c.552 0 1 .447 1 1s-.448 1-1 1z" fill="#0a5078"/></g></g></g></g><g><g><g><g><path d="m38 26h-6c-.552 0-1-.447-1-1s.448-1 1-1h6c.552 0 1 .447 1 1s-.448 1-1 1z" fill="#0a5078"/></g></g></g><g><g><g><path d="m28 26h-2c-.552 0-1-.447-1-1s.448-1 1-1h2c.552 0 1 .447 1 1s-.448 1-1 1z" fill="#0a5078"/></g></g></g></g><g><g><g><g><path d="m38 30h-6c-.552 0-1-.447-1-1s.448-1 1-1h6c.552 0 1 .447 1 1s-.448 1-1 1z" fill="#0a5078"/></g></g></g><g><g><g><path d="m28 30h-2c-.552 0-1-.447-1-1s.448-1 1-1h2c.552 0 1 .447 1 1s-.448 1-1 1z" fill="#0a5078"/></g></g></g></g><g><g><g><g><path d="m38 34h-6c-.552 0-1-.447-1-1s.448-1 1-1h6c.552 0 1 .447 1 1s-.448 1-1 1z" fill="#0a5078"/></g></g></g><g><g><g><path d="m28 34h-2c-.552 0-1-.447-1-1s.448-1 1-1h2c.552 0 1 .447 1 1s-.448 1-1 1z" fill="#0a5078"/></g></g></g></g></g></g></svg>