<svg enable-background="new 0 0 256 256" height="512" viewBox="0 0 256 256" width="512" xmlns="http://www.w3.org/2000/svg"><g><g><g><g><path d="m199.157 223.112h-142.314c-2.876 0-5.207-2.331-5.207-5.207v-179.81c0-2.876 2.331-5.207 5.207-5.207h142.313c2.876 0 5.207 2.331 5.207 5.207v179.81c0 2.876-2.331 5.207-5.206 5.207z" fill="#58595b"/></g></g><g><g><path d="m199.359 32.893c.003.067.004.135.004.202v179.81c0 2.875-2.331 5.207-5.207 5.207h-142.313c-.068 0-.135-.002-.202-.004.106 2.782 2.395 5.004 5.202 5.004h142.313c2.875 0 5.207-2.331 5.207-5.207v-179.81c0-2.808-2.222-5.096-5.004-5.202z" fill="#414042"/></g></g><g><g><path d="m199.157 32.888h-142.314c-2.875 0-5.207 2.331-5.207 5.207v44.358h152.727v-44.358c0-2.876-2.331-5.207-5.206-5.207z" fill="#808285"/></g></g></g><g><g><g><path d="m190.757 73.409h-125.514c-1.438 0-2.603-1.166-2.603-2.603v-26.813c0-1.438 1.166-2.603 2.603-2.603h125.514c1.438 0 2.603 1.166 2.603 2.603v26.813c0 1.438-1.166 2.603-2.603 2.603z" fill="#ffa91a"/></g></g></g><g><g><path d="m68.64 59.399c-1.1 0-2-.899-2-2v-10.009c0-.53.21-1.04.59-1.41.37-.38.88-.59 1.41-.59h89.99c1.1 0 2 .9 2 2 0 1.101-.9 2-2 2h-87.99v8.01c0 1.1-.9 1.999-2 1.999zm97.99-10.009c-1.1 0-2-.899-2-2 0-1.1.9-2 2-2s2 .9 2 2-.901 2-2 2z" fill="#ffc91d"/></g></g><g><g><path d="m190.757 41.39h-7.397v19.416c0 1.438-1.166 2.603-2.603 2.603h-118.117v7.397c0 1.438 1.166 2.603 2.603 2.603h125.514c1.438 0 2.603-1.166 2.603-2.603v-26.813c0-1.438-1.165-2.603-2.603-2.603z" fill="#f79219"/></g></g><g><g><path d="m190.757 41.39h-2.397v24.416c0 1.438-1.166 2.603-2.603 2.603h-123.117v2.397c0 1.438 1.166 2.603 2.603 2.603h125.514c1.438 0 2.603-1.166 2.603-2.603v-26.813c0-1.438-1.165-2.603-2.603-2.603z" fill="#ef7816"/></g></g><g><g><g><g><path d="m170.887 92.961c0-1.172-.95-2.121-2.122-2.121h-11.866c-1.172 0-2.122.95-2.122 2.121v1.305c0 1.172.95 2.122 2.122 2.122h11.866c1.172 0 2.122-.95 2.122-2.122z" fill="#ffa91a"/></g></g></g><g><g><g><path d="m193.36 92.961c0-1.172-.95-2.121-2.122-2.121h-11.866c-1.172 0-2.122.95-2.122 2.121v1.305c0 1.172.95 2.122 2.122 2.122h11.866c1.172 0 2.122-.95 2.122-2.122z" fill="#ffa91a"/></g></g></g><g><g><g><path d="m148.414 92.961c0-1.172-.95-2.121-2.122-2.121h-11.866c-1.172 0-2.122.95-2.122 2.121v1.305c0 1.172.95 2.122 2.122 2.122h11.866c1.172 0 2.122-.95 2.122-2.122z" fill="#ffa91a"/></g></g></g></g><g><g><path d="m88.862 112.022v18.076c0 2.876-2.331 5.207-5.207 5.207h-15.809c-2.876 0-5.207-2.331-5.207-5.207v-18.076c0-2.875 2.331-5.206 5.207-5.206h15.809c2.876 0 5.207 2.331 5.207 5.206zm-5.206 31.893h-15.81c-2.876 0-5.207 2.331-5.207 5.206v18.076c0 2.876 2.331 5.206 5.207 5.206h15.809c2.876 0 5.207-2.331 5.207-5.206v-18.076c0-2.875-2.331-5.206-5.206-5.206zm0 37.099h-15.81c-2.876 0-5.207 2.331-5.207 5.206v18.076c0 2.876 2.331 5.206 5.207 5.206h15.809c2.876 0 5.207-2.331 5.207-5.206v-18.076c0-2.876-2.331-5.206-5.206-5.206zm34.832-74.198h-15.809c-2.876 0-5.207 2.331-5.207 5.206v18.076c0 2.876 2.331 5.207 5.207 5.207h15.809c2.876 0 5.207-2.331 5.207-5.207v-18.076c0-2.875-2.331-5.206-5.207-5.206zm0 37.099h-15.809c-2.876 0-5.207 2.331-5.207 5.206v18.076c0 2.876 2.331 5.206 5.207 5.206h15.809c2.876 0 5.207-2.331 5.207-5.206v-18.076c0-2.875-2.331-5.206-5.207-5.206zm0 37.099h-15.809c-2.876 0-5.207 2.331-5.207 5.206v18.076c0 2.876 2.331 5.206 5.207 5.206h15.809c2.876 0 5.207-2.331 5.207-5.206v-18.076c0-2.876-2.331-5.206-5.207-5.206zm34.833-74.198h-15.809c-2.876 0-5.207 2.331-5.207 5.206v18.076c0 2.876 2.331 5.207 5.207 5.207h15.809c2.876 0 5.207-2.331 5.207-5.207v-18.076c-.001-2.875-2.332-5.206-5.207-5.206zm0 37.099h-15.809c-2.876 0-5.207 2.331-5.207 5.206v18.076c0 2.876 2.331 5.206 5.207 5.206h15.809c2.876 0 5.207-2.331 5.207-5.206v-18.076c-.001-2.875-2.332-5.206-5.207-5.206zm0 37.099h-15.809c-2.876 0-5.207 2.331-5.207 5.206v18.076c0 2.876 2.331 5.206 5.207 5.206h15.809c2.876 0 5.207-2.331 5.207-5.206v-18.076c-.001-2.876-2.332-5.206-5.207-5.206zm34.832-74.198h-15.809c-2.876 0-5.207 2.331-5.207 5.206v18.076c0 2.876 2.331 5.207 5.207 5.207h15.809c2.876 0 5.207-2.331 5.207-5.207v-18.076c0-2.875-2.331-5.206-5.207-5.206zm0 37.099h-15.809c-2.876 0-5.207 2.331-5.207 5.206v18.076c0 2.876 2.331 5.206 5.207 5.206h15.809c2.876 0 5.207-2.331 5.207-5.206v-18.076c0-2.875-2.331-5.206-5.207-5.206zm0 37.099h-15.809c-2.876 0-5.207 2.331-5.207 5.206v18.076c0 2.876 2.331 5.206 5.207 5.206h15.809c2.876 0 5.207-2.331 5.207-5.206v-18.076c0-2.876-2.331-5.206-5.207-5.206z" fill="#fff"/></g></g><g><g><g><path d="m118.691 181.018c.003.067.004.134.004.202v18.076c0 2.875-2.331 5.206-5.207 5.206h-15.809c-.068 0-.135-.001-.202-.004.106 2.782 2.395 5.004 5.202 5.004h15.809c2.875 0 5.207-2.331 5.207-5.206v-18.076c0-2.808-2.223-5.095-5.004-5.202z" fill="#d1d3d4"/></g></g><g><g><path d="m118.691 143.919c.003.067.004.134.004.202v18.076c0 2.876-2.331 5.206-5.207 5.206h-15.809c-.068 0-.135-.002-.202-.004.106 2.782 2.395 5.004 5.202 5.004h15.809c2.875 0 5.207-2.331 5.207-5.206v-18.076c0-2.808-2.223-5.095-5.004-5.202z" fill="#d1d3d4"/></g></g><g><g><path d="m83.858 181.018c.003.067.004.134.004.202v18.076c0 2.875-2.331 5.206-5.207 5.206h-15.809c-.068 0-.135-.001-.202-.004.106 2.782 2.394 5.004 5.202 5.004h15.809c2.876 0 5.207-2.331 5.207-5.206v-18.076c.001-2.808-2.222-5.095-5.004-5.202z" fill="#d1d3d4"/></g></g><g><g><path d="m83.858 143.919c.003.067.004.134.004.202v18.076c0 2.876-2.331 5.206-5.207 5.206h-15.809c-.068 0-.135-.002-.202-.004.106 2.782 2.394 5.004 5.202 5.004h15.809c2.876 0 5.207-2.331 5.207-5.206v-18.076c.001-2.808-2.222-5.095-5.004-5.202z" fill="#d1d3d4"/></g></g><g><g><path d="m118.691 106.82c.003.067.004.134.004.202v18.076c0 2.875-2.331 5.207-5.207 5.207h-15.809c-.068 0-.135-.002-.202-.004.107 2.782 2.395 5.004 5.202 5.004h15.809c2.875 0 5.207-2.331 5.207-5.207v-18.076c0-2.807-2.223-5.096-5.004-5.202z" fill="#d1d3d4"/></g></g><g><g><path d="m83.858 106.82c.003.067.004.134.004.202v18.076c0 2.875-2.331 5.207-5.207 5.207h-15.809c-.068 0-.135-.002-.202-.004.107 2.782 2.395 5.004 5.202 5.004h15.809c2.876 0 5.207-2.331 5.207-5.207v-18.076c.001-2.807-2.222-5.096-5.004-5.202z" fill="#d1d3d4"/></g></g><g><g><path d="m188.356 181.018c.003.067.004.134.004.202v18.076c0 2.875-2.331 5.206-5.207 5.206h-15.809c-.068 0-.135-.001-.202-.004.106 2.782 2.395 5.004 5.202 5.004h15.809c2.875 0 5.207-2.331 5.207-5.206v-18.076c0-2.808-2.223-5.095-5.004-5.202z" fill="#d1d3d4"/></g></g><g><g><path d="m188.356 143.919c.003.067.004.134.004.202v18.076c0 2.876-2.331 5.206-5.207 5.206h-15.809c-.068 0-.135-.002-.202-.004.106 2.782 2.395 5.004 5.202 5.004h15.809c2.875 0 5.207-2.331 5.207-5.206v-18.076c0-2.808-2.223-5.095-5.004-5.202z" fill="#d1d3d4"/></g></g><g><g><path d="m153.523 181.018c.003.067.004.134.004.202v18.076c0 2.875-2.331 5.206-5.207 5.206h-15.809c-.068 0-.135-.001-.202-.004.106 2.782 2.395 5.004 5.202 5.004h15.809c2.876 0 5.207-2.331 5.207-5.206v-18.076c0-2.808-2.222-5.095-5.004-5.202z" fill="#d1d3d4"/></g></g><g><g><path d="m188.356 106.82c.003.067.004.134.004.202v18.076c0 2.875-2.331 5.207-5.207 5.207h-15.809c-.068 0-.135-.002-.202-.004.107 2.782 2.395 5.004 5.202 5.004h15.809c2.875 0 5.207-2.331 5.207-5.207v-18.076c0-2.807-2.223-5.096-5.004-5.202z" fill="#d1d3d4"/></g></g><g><g><path d="m153.523 106.82c.003.067.004.134.004.202v18.076c0 2.875-2.331 5.207-5.207 5.207h-15.809c-.068 0-.135-.002-.202-.004.107 2.782 2.395 5.004 5.202 5.004h15.809c2.876 0 5.207-2.331 5.207-5.207v-18.076c0-2.807-2.222-5.096-5.004-5.202z" fill="#d1d3d4"/></g></g><g><g><path d="m153.523 143.919c.003.067.004.134.004.202v18.076c0 2.876-2.331 5.206-5.207 5.206h-15.809c-.068 0-.135-.002-.202-.004.106 2.782 2.395 5.004 5.202 5.004h15.809c2.876 0 5.207-2.331 5.207-5.206v-18.076c0-2.808-2.222-5.095-5.004-5.202z" fill="#d1d3d4"/></g></g></g><g><g><g><path d="m121.092 88.581h-55.849c-1.438 0-2.603 1.166-2.603 2.603v6.346c0 1.438 1.166 2.603 2.603 2.603h55.849c1.438 0 2.603-1.166 2.603-2.603v-6.346c0-1.437-1.165-2.603-2.603-2.603z" fill="#414042"/></g></g></g></g></svg>