<svg enable-background="new 0 0 256 256" height="512" viewBox="0 0 256 256" width="512" xmlns="http://www.w3.org/2000/svg"><g><g><g><g><g><g><g><g><g><g><path d="m195.703 243.095h-135.406c-5.522 0-9.999-4.477-9.999-9.999v-188.11c0-5.522 4.477-9.999 9.999-9.999h135.405c5.522 0 9.999 4.477 9.999 9.999v188.109c.001 5.523-4.476 10-9.998 10z" fill="#648940"/></g></g><g><g><path d="m199.818 35.87c.568 1.255.884 2.649.884 4.116v188.109c0 5.522-4.477 9.999-9.999 9.999h-135.406c-1.467 0-2.86-.316-4.116-.884 1.569 3.469 5.06 5.884 9.116 5.884h135.405c5.522 0 9.999-4.477 9.999-9.999v-188.109c.001-4.055-2.413-7.547-5.883-9.116z" fill="#5a7a39"/></g></g><g><g><path d="m189.106 229.154h-122.212c-1.841 0-3.333-1.492-3.333-3.333v-173.527c0-1.841 1.492-3.333 3.333-3.333h122.212c1.841 0 3.333 1.492 3.333 3.333v173.527c0 1.841-1.492 3.333-3.333 3.333z" fill="#f1f2f2"/></g></g><g><g><g><path d="m174.215 115.965h-92.43c-2.184 0-3.954-1.77-3.954-3.954 0-2.184 1.77-3.954 3.954-3.954h92.429c2.184 0 3.954 1.77 3.954 3.954.001 2.184-1.769 3.954-3.953 3.954z" fill="#d1d3d4"/></g></g><g><g><path d="m155.006 85.395h-54.011c-2.184 0-3.954-1.77-3.954-3.954 0-2.184 1.77-3.954 3.954-3.954h54.011c2.184 0 3.954 1.77 3.954 3.954 0 2.183-1.77 3.954-3.954 3.954z" fill="#939598"/></g></g><g><g><path d="m174.215 138.632h-92.43c-2.184 0-3.954-1.77-3.954-3.954 0-2.184 1.77-3.954 3.954-3.954h92.429c2.184 0 3.954 1.77 3.954 3.954.001 2.183-1.769 3.954-3.953 3.954z" fill="#d1d3d4"/></g></g><g><g><path d="m174.215 161.299h-92.43c-2.184 0-3.954-1.77-3.954-3.954 0-2.184 1.77-3.954 3.954-3.954h92.429c2.184 0 3.954 1.77 3.954 3.954.001 2.183-1.769 3.954-3.953 3.954z" fill="#d1d3d4"/></g></g><g><g><path d="m174.215 206.632h-92.43c-2.184 0-3.954-1.77-3.954-3.954 0-2.184 1.77-3.954 3.954-3.954h92.429c2.184 0 3.954 1.77 3.954 3.954.001 2.183-1.769 3.954-3.953 3.954z" fill="#d1d3d4"/></g></g></g><g><g><path d="m189.106 48.961h-1.667v171.86c0 1.841-1.492 3.333-3.333 3.333h-120.545v1.667c0 1.841 1.492 3.333 3.333 3.333h122.212c1.841 0 3.333-1.492 3.333-3.333v-173.527c0-1.841-1.492-3.333-3.333-3.333z" fill="#e6e7e8"/></g></g><g><g><path d="m69.56 167.4c-1.1 0-2-.9-2-2s.9-2 2-2 2 .9 2 2-.9 2-2 2zm0-8c-1.1 0-2-.9-2-2v-102.44c0-.53.21-1.04.59-1.41.37-.38.89-.59 1.41-.59h14.26c1.1 0 2 .9 2 2s-.9 2-2 2h-12.26v100.43.01c0 1.1-.9 2-2 2z" fill="#fff"/></g></g><g><g><path d="m166.473 48.612-4.994-17.915c-.803-2.882-3.429-4.876-6.421-4.876h-20.808c0 3.451-2.798 6.249-6.249 6.249s-6.249-2.798-6.249-6.249h-20.808c-2.992 0-5.618 1.994-6.421 4.876l-4.994 17.915c-1.184 4.249 2.011 8.456 6.422 8.456h64.102c4.41 0 7.604-4.207 6.42-8.456z" fill="#ffa91a"/></g></g><g><g><path d="m166.473 48.612-4.994-17.915c-.803-2.882-3.429-4.876-6.421-4.876h-2.151l3.566 12.791c1.185 4.249-2.01 8.456-6.421 8.456h-60.094l-.43 1.544c-1.184 4.249 2.011 8.456 6.422 8.456h64.102c4.411 0 7.605-4.207 6.421-8.456z" fill="#f79219"/></g></g><g><g><g><path d="m121.855 26.965c-.069-.371-.105-.753-.105-1.145h-2.5c.755.567 1.641.967 2.605 1.145z" fill="#f79219"/></g></g></g><g><g><path d="m128 12.905c-7.133 0-12.915 5.782-12.915 12.916 0 7.133 5.782 12.915 12.915 12.915s12.916-5.782 12.916-12.915-5.783-12.916-12.916-12.916zm0 19.165c-3.451 0-6.249-2.798-6.249-6.249s2.798-6.249 6.249-6.249c3.452 0 6.249 2.798 6.249 6.249s-2.797 6.249-6.249 6.249z" fill="#ffa91a"/></g></g><g><g><g><path d="m136.078 15.743c1.775 2.212 2.838 5.021 2.838 8.078 0 7.133-5.782 12.915-12.916 12.915-3.057 0-5.866-1.062-8.078-2.837 2.367 2.949 6.002 4.837 10.078 4.837 7.133 0 12.916-5.782 12.916-12.915 0-4.076-1.889-7.711-4.838-10.078z" fill="#f79219"/></g></g></g></g></g></g></g></g></g></g><g><g><g><g><path d="m108.784 188.779 7.969-26.446c.476-1.578 1.335-3.014 2.5-4.18l90.329-90.329c1.845-1.845 4.837-1.845 6.682 0l15.986 15.986c1.845 1.845 1.845 4.837 0 6.682l-89.973 89.973c-1.148 1.148-2.558 1.998-4.109 2.478l-26.882 8.32c-1.527.473-2.963-.952-2.502-2.484z" fill="#ffa91a"/></g></g><g><g><path d="m232.25 83.81-10-10c1.845 1.845 1.845 4.837 0 6.682l-89.973 89.973c-1.148 1.148-2.558 1.999-4.109 2.479l-16.115 4.988-3.269 10.848c-.462 1.531.975 2.957 2.503 2.484l26.882-8.32c1.551-.48 2.961-1.331 4.109-2.479l89.973-89.973c1.844-1.845 1.844-4.837-.001-6.682z" fill="#f79219"/></g></g><g><g><path d="m232.25 83.81-5-5c1.845 1.845 1.845 4.837 0 6.682l-89.973 89.973c-1.148 1.148-2.558 1.999-4.109 2.479l-23.291 7.209-1.093 3.627c-.462 1.531.975 2.957 2.503 2.484l26.882-8.32c1.551-.48 2.961-1.331 4.109-2.479l89.973-89.973c1.844-1.845 1.844-4.837-.001-6.682z" fill="#ef7816"/></g></g><g><g><path d="m183.887 94.567h32.057v11.184h-32.057z" fill="#ef7816" transform="matrix(.707 .707 -.707 .707 129.377 -112.026)"/></g></g><g><g><path d="m108.784 188.779c-.462 1.532.975 2.957 2.503 2.484l26.882-8.32c1.39-.43 2.667-1.159 3.744-2.132l-22.659-22.659c-1.166 1.166-2.025 2.602-2.5 4.18z" fill="#f79219"/></g></g><g><g><path d="m131.912 170.811c-1.076.973-2.354 1.702-3.744 2.132l-16.115 4.988-3.269 10.848c-.461 1.531.975 2.957 2.503 2.484l26.882-8.32c1.39-.43 2.667-1.159 3.744-2.132z" fill="#ef7816"/></g></g><g><g><path d="m110.963 181.55-2.178 7.229c-.462 1.531.975 2.957 2.503 2.484l7.17-2.219z" fill="#ffa91a"/></g></g></g></g></g></svg>