<svg height="512" viewBox="0 0 64 64" width="512" xmlns="http://www.w3.org/2000/svg"><g id="Icons"><g><g><g><path d="m56 46h-48v-32c0-1.105.895-2 2-2h44c1.105 0 2 .895 2 2z" fill="#0a5078"/></g></g><g><g><path d="m10 43v-28c0-.552.448-1 1-1h42c.552 0 1 .448 1 1v28c0 .552-.448 1-1 1h-42c-.552 0-1-.448-1-1z" fill="#fab400"/></g></g><g><g><path d="m48 19v16c0 .55-.45 1-1 1h-30c-.55 0-1-.45-1-1v-16c0-.55.45-1 1-1h30c.55 0 1 .45 1 1z" fill="#dc9600"/></g></g></g><g><g><path d="m7 52h50c1.657 0 3-1.343 3-3v-2c0-.552-.448-1-1-1h-54c-.552 0-1 .448-1 1v2c0 1.657 1.343 3 3 3z" fill="#00a0c8"/></g></g><g><g><path d="m36 48h-8c-.552 0-1-.448-1-1v-1h10v1c0 .552-.448 1-1 1z" fill="#0082aa"/></g></g><g><g><path d="m52 41v2c0 .55-.45 1-1 1h-38c-.55 0-1-.45-1-1v-2c0-.55.45-1 1-1h38c.55 0 1 .45 1 1z" fill="#f0f0f0"/></g></g><g><g><g><path d="m19 40v2c0 .55-.45 1-1 1h-2c-.55 0-1-.45-1-1v-2z" fill="#d2d2d2"/></g></g><g><g><path d="m25 40v2c0 .55-.45 1-1 1h-2c-.55 0-1-.45-1-1v-2z" fill="#d2d2d2"/></g></g><g><g><path d="m31 40v2c0 .55-.45 1-1 1h-2c-.55 0-1-.45-1-1v-2z" fill="#d2d2d2"/></g></g><g><g><path d="m37 40v2c0 .55-.45 1-1 1h-2c-.55 0-1-.45-1-1v-2z" fill="#d2d2d2"/></g></g><g><g><path d="m43 40v2c0 .55-.45 1-1 1h-2c-.55 0-1-.45-1-1v-2z" fill="#d2d2d2"/></g></g><g><g><path d="m49 40v2c0 .55-.45 1-1 1h-2c-.55 0-1-.45-1-1v-2z" fill="#d2d2d2"/></g></g></g><g><g><g><path d="m18 42h-2c-.552 0-1-.448-1-1v-2c0-.552.448-1 1-1h2c.552 0 1 .448 1 1v2c0 .552-.448 1-1 1z" fill="#0a5078"/></g></g><g><g><path d="m24 42h-2c-.552 0-1-.448-1-1v-2c0-.552.448-1 1-1h2c.552 0 1 .448 1 1v2c0 .552-.448 1-1 1z" fill="#00a0c8"/></g></g><g><g><path d="m30 42h-2c-.552 0-1-.448-1-1v-2c0-.552.448-1 1-1h2c.552 0 1 .448 1 1v2c0 .552-.448 1-1 1z" fill="#c80a50"/></g></g><g><g><path d="m36 42h-2c-.552 0-1-.448-1-1v-2c0-.552.448-1 1-1h2c.552 0 1 .448 1 1v2c0 .552-.448 1-1 1z" fill="#0a5078"/></g></g><g><g><path d="m42 42h-2c-.552 0-1-.448-1-1v-2c0-.552.448-1 1-1h2c.552 0 1 .448 1 1v2c0 .552-.448 1-1 1z" fill="#c80a50"/></g></g><g><g><path d="m48 42h-2c-.552 0-1-.448-1-1v-2c0-.552.448-1 1-1h2c.552 0 1 .448 1 1v2c0 .552-.448 1-1 1z" fill="#00a0c8"/></g></g></g><g><g><path d="m48 18v16c0 .55-.45 1-1 1h-30c-.55 0-1-.45-1-1v-16c0-.55.45-1 1-1h30c.55 0 1 .45 1 1z" fill="#f0f0f0"/></g></g><g><g><path d="m22 17v18h-5c-.552 0-1-.448-1-1v-16c0-.552.448-1 1-1z" fill="#d2d2d2"/></g></g><g><g><path d="m48 21h-32v-3c0-.552.448-1 1-1h30c.552 0 1 .448 1 1z" fill="#0a5078"/></g></g><g><g><circle cx="46" cy="19" fill="#c80a50" r="1"/></g></g><g><g><circle cx="43" cy="19" fill="#fab400" r="1"/></g></g><g><g><circle cx="40" cy="19" fill="#00a0c8" r="1"/></g></g><g><g><g><path d="m20 23.5h-2.5c-.276 0-.5-.224-.5-.5s.224-.5.5-.5h2.5c.276 0 .5.224.5.5s-.224.5-.5.5z" fill="#0a5078"/></g></g><g><g><path d="m20 25.5h-2.5c-.276 0-.5-.224-.5-.5s.224-.5.5-.5h2.5c.276 0 .5.224.5.5s-.224.5-.5.5z" fill="#0a5078"/></g></g><g><g><path d="m20 27.5h-2.5c-.276 0-.5-.224-.5-.5s.224-.5.5-.5h2.5c.276 0 .5.224.5.5s-.224.5-.5.5z" fill="#0a5078"/></g></g><g><g><path d="m20 29.5h-2.5c-.276 0-.5-.224-.5-.5s.224-.5.5-.5h2.5c.276 0 .5.224.5.5s-.224.5-.5.5z" fill="#0a5078"/></g></g><g><g><path d="m20 31.5h-2.5c-.276 0-.5-.224-.5-.5s.224-.5.5-.5h2.5c.276 0 .5.224.5.5s-.224.5-.5.5z" fill="#0a5078"/></g></g><g><g><path d="m20 33.5h-2.5c-.276 0-.5-.224-.5-.5s.224-.5.5-.5h2.5c.276 0 .5.224.5.5s-.224.5-.5.5z" fill="#0a5078"/></g></g></g><g><g><g><path d="m27 26h-2c-.552 0-1-.448-1-1v-2c0-.552.448-1 1-1h2c.552 0 1 .448 1 1v2c0 .552-.448 1-1 1z" fill="#00a0c8"/></g></g><g><g><path d="m33 26h-2c-.552 0-1-.448-1-1v-2c0-.552.448-1 1-1h2c.552 0 1 .448 1 1v2c0 .552-.448 1-1 1z" fill="#c80a50"/></g></g><g><g><path d="m39 26h-2c-.552 0-1-.448-1-1v-2c0-.552.448-1 1-1h2c.552 0 1 .448 1 1v2c0 .552-.448 1-1 1z" fill="#fab400"/></g></g><g><g><path d="m45 26h-2c-.552 0-1-.448-1-1v-2c0-.552.448-1 1-1h2c.552 0 1 .448 1 1v2c0 .552-.448 1-1 1z" fill="#0a5078"/></g></g></g><g><g><g><path d="m27 32h-2c-.552 0-1-.448-1-1v-2c0-.552.448-1 1-1h2c.552 0 1 .448 1 1v2c0 .552-.448 1-1 1z" fill="#c80a50"/></g></g><g><g><path d="m33 32h-2c-.552 0-1-.448-1-1v-2c0-.552.448-1 1-1h2c.552 0 1 .448 1 1v2c0 .552-.448 1-1 1z" fill="#0a5078"/></g></g><g><g><path d="m39 32h-2c-.552 0-1-.448-1-1v-2c0-.552.448-1 1-1h2c.552 0 1 .448 1 1v2c0 .552-.448 1-1 1z" fill="#00a0c8"/></g></g><g><g><path d="m45 32h-2c-.552 0-1-.448-1-1v-2c0-.552.448-1 1-1h2c.552 0 1 .448 1 1v2c0 .552-.448 1-1 1z" fill="#c80a50"/></g></g></g></g></svg>