<svg id="Capa_1" enable-background="new 0 0 512 512" height="512" viewBox="0 0 512 512" width="512" xmlns="http://www.w3.org/2000/svg"><g><path d="m512 256c0 54.49-17.03 105-46.05 146.51-11.941 17.084-35.423 23.132-51.079 36.814-22.366 19.546-38.655 44.771-66.861 55.636-28.55 11.01-59.58 17.04-92.01 17.04s-63.46-6.03-92.01-17.04c-47.95-18.47-88.94-50.96-117.94-92.45-29.02-41.51-46.05-92.02-46.05-146.51s17.03-105 46.05-146.51c29-41.49 69.99-73.98 117.94-92.45 28.55-11.01 59.58-17.04 92.01-17.04s63.46 6.03 92.01 17.04c47.95 18.47 88.94 50.96 117.94 92.45 29.02 41.51 46.05 92.02 46.05 146.51z" fill="#f6e266"/><path d="m465.95 102.84v299.67c-29 41.49-69.99 73.98-117.94 92.45h-216.17c-47.38 0-85.79-38.41-85.79-85.8v-306.32c0-47.39 38.41-85.8 85.79-85.8h248.32c47.38 0 85.79 38.41 85.79 85.8z" fill="#8a6ac1"/><path d="m154.79 494.957h-22.94c-47.39 0-85.8-38.41-85.8-85.8v-306.32c0-47.39 38.41-85.8 85.8-85.8h22.94c-47.38 0-85.79 38.41-85.79 85.8v306.32c0 47.391 38.41 85.8 85.79 85.8z" fill="#6f52a8"/><path d="m435.95 271.44v137.72c0 30.77-25.03 55.8-55.79 55.8h-248.32c-30.76 0-55.79-25.03-55.79-55.8v-137.72c0-30.77 25.03-55.8 55.79-55.8h248.32c30.76 0 55.79 25.03 55.79 55.8z" fill="#6f52a8"/><path d="m435.95 102.84v28.98c0 30.77-25.03 55.8-55.79 55.8h-248.32c-30.76 0-55.79-25.03-55.79-55.8v-28.98c0-30.77 25.03-55.8 55.79-55.8h248.32c30.76 0 55.79 25.03 55.79 55.8z" fill="#6f52a8"/><path d="m131.84 167.62c-19.735 0-35.79-16.06-35.79-35.8v-28.98c0-19.74 16.055-35.8 35.79-35.8h248.32c19.734 0 35.79 16.06 35.79 35.8v28.98c0 19.74-16.056 35.8-35.79 35.8z" fill="#b1e4f9"/><path d="m415.95 102.84v28.98c0 19.74-16.05 35.8-35.79 35.8h-24.94c19.74 0 35.79-16.06 35.79-35.8v-28.98c0-19.74-16.05-35.8-35.79-35.8h24.94c19.74 0 35.79 16.06 35.79 35.8z" fill="#90d8f9"/><path d="m189.798 299.057v-33.086c0-16.751-13.58-30.331-30.331-30.331h-33.086c-16.751 0-30.331 13.58-30.331 30.331v33.086c0 16.751 13.58 30.331 30.331 30.331h33.086c16.751 0 30.331-13.58 30.331-30.331z" fill="#f9f6f6"/><path d="m238.953 329.388h33.086c16.751 0 30.331-13.58 30.331-30.331v-33.086c0-16.751-13.58-30.331-30.331-30.331h-33.086c-16.751 0-30.331 13.58-30.331 30.331v33.086c0 16.751 13.58 30.331 30.331 30.331z" fill="#f9f6f6"/><path d="m352.533 445.075h33.086c16.751 0 30.331-13.58 30.331-30.331v-148.773c0-16.751-13.58-30.331-30.331-30.331h-33.086c-16.751 0-30.331 13.58-30.331 30.331v148.773c0 16.752 13.58 30.331 30.331 30.331z" fill="#f9f6f6"/><path d="m159.467 351.212h-33.086c-16.751 0-30.331 13.58-30.331 30.331v33.086c0 16.751 13.58 30.331 30.331 30.331h33.086c16.751 0 30.331-13.58 30.331-30.331v-33.086c0-16.751-13.58-30.331-30.331-30.331z" fill="#f9f6f6"/><path d="m208.622 381.543v33.086c0 16.751 13.58 30.331 30.331 30.331h33.086c16.751 0 30.331-13.58 30.331-30.331v-33.086c0-16.751-13.58-30.331-30.331-30.331h-33.086c-16.751 0-30.331 13.58-30.331 30.331z" fill="#f9f6f6"/><path d="m148.99 329.389h-22.61c-16.75 0-30.33-13.58-30.33-30.33v-33.09c0-16.75 13.58-30.33 30.33-30.33h22.61c-16.75 0-30.33 13.58-30.33 30.33v33.09c0 16.75 13.58 30.33 30.33 30.33z" fill="#dddaec"/><path d="m261.56 329.389h-22.61c-16.75 0-30.33-13.58-30.33-30.33v-33.09c0-16.75 13.58-30.33 30.33-30.33h22.61c-16.75 0-30.33 13.58-30.33 30.33v33.09c0 16.75 13.58 30.33 30.33 30.33z" fill="#dddaec"/><path d="m375.14 445.079h-22.61c-16.75 0-30.33-13.58-30.33-30.33v-148.78c0-16.75 13.58-30.33 30.33-30.33h22.61c-16.75 0-30.33 13.58-30.33 30.33v148.78c0 16.75 13.58 30.33 30.33 30.33z" fill="#dddaec"/><path d="m148.99 444.959h-22.61c-16.75 0-30.33-13.58-30.33-30.33v-33.09c0-16.75 13.58-30.33 30.33-30.33h22.61c-16.75 0-30.33 13.58-30.33 30.33v33.09c0 16.75 13.58 30.33 30.33 30.33z" fill="#dddaec"/><path d="m261.56 444.959h-22.61c-16.75 0-30.33-13.58-30.33-30.33v-33.09c0-16.75 13.58-30.33 30.33-30.33h22.61c-16.75 0-30.33 13.58-30.33 30.33v33.09c0 16.75 13.58 30.33 30.33 30.33z" fill="#dddaec"/><g fill="#475959"><path d="m142.924 311.445c-5.142 0-9.311-4.169-9.311-9.311v-39.24c0-5.142 4.169-9.311 9.311-9.311 5.142 0 9.311 4.169 9.311 9.311v39.24c0 5.142-4.169 9.311-9.311 9.311z"/><path d="m113.993 282.514c0-5.142 4.169-9.311 9.311-9.311h39.24c5.142 0 9.311 4.169 9.311 9.311 0 5.142-4.169 9.311-9.311 9.311h-39.24c-5.142 0-9.311-4.169-9.311-9.311z"/><path d="m226.565 282.514c0-5.142 4.169-9.311 9.311-9.311h39.24c5.142 0 9.311 4.169 9.311 9.311 0 5.142-4.169 9.311-9.311 9.311h-39.24c-5.142 0-9.311-4.169-9.311-9.311z"/><g><path d="m340.145 325.061c0-5.142 4.169-9.311 9.311-9.311h39.24c5.142 0 9.311 4.169 9.311 9.311 0 5.142-4.169 9.311-9.311 9.311h-39.24c-5.142 0-9.311-4.169-9.311-9.311z"/><path d="m340.145 355.655c0-5.142 4.169-9.311 9.311-9.311h39.24c5.142 0 9.311 4.169 9.311 9.311 0 5.142-4.169 9.311-9.311 9.311h-39.24c-5.142 0-9.311-4.169-9.311-9.311z"/></g><path d="m226.565 398.086c0-5.142 4.169-9.311 9.311-9.311h39.24c5.142 0 9.311 4.169 9.311 9.311 0 5.142-4.169 9.311-9.311 9.311h-39.24c-5.142 0-9.311-4.169-9.311-9.311z"/><path d="m122.467 418.543c-3.636-3.636-3.636-9.532 0-13.168l27.747-27.747c3.636-3.636 9.532-3.636 13.168 0 3.636 3.636 3.636 9.532 0 13.168l-27.747 27.747c-3.637 3.637-9.532 3.637-13.168 0z"/><path d="m122.467 377.629c3.636-3.636 9.532-3.636 13.168 0l27.747 27.747c3.636 3.636 3.636 9.532 0 13.168-3.636 3.636-9.532 3.636-13.168 0l-27.747-27.747c-3.637-3.637-3.637-9.532 0-13.168z"/><g><circle cx="255.496" cy="372.951" r="9.311"/><circle cx="255.496" cy="423.221" r="9.311"/></g></g></g></svg>